<?xml version="1.0" encoding="UTF-8" standalone="no"?>
<svg width="64px" height="51px" viewBox="0 0 64 51" version="1.1" xmlns="http://www.w3.org/2000/svg" xmlns:xlink="http://www.w3.org/1999/xlink">
    <!-- Generator: Sketch 41.2 (35397) - http://www.bohemiancoding.com/sketch -->
    <title>copper-lead</title>
    <desc>Created with Sketch.</desc>
    <defs>
        <polygon id="path-1" points="63.6649617 50.9691875 63.6649617 0 8.62119205e-05 0 8.62119205e-05 50.9691875"></polygon>
    </defs>
    <g id="Welcome" stroke="none" stroke-width="1" fill="none" fill-rule="evenodd">
        <g id="Desktop" transform="translate(-1073.000000, -555.000000)">
            <g id="copper-lead" transform="translate(1073.000000, 555.000000)">
                <mask id="mask-2" fill="white">
                    <use xlink:href="#path-1"></use>
                </mask>
                <g id="Clip-2"></g>
                <path d="M61.5891235,38.647375 L61.5891235,40.9675208 L61.5891235,48.6614375 L54.6694295,48.6614375 L52.5826098,48.6614375 L46.8233093,48.6614375 C44.6112874,44.7146042 39.6448175,41.9613125 33.8669814,41.9613125 C28.0901945,41.9613125 23.1233749,44.7146042 20.911353,48.6614375 L15.1520525,48.6614375 L13.0652328,48.6614375 L6.14518907,48.6614375 L6.14518907,40.9675208 L6.14518907,38.647375 L6.14518907,36.2234583 C6.14518907,31.9734583 9.24341858,28.53025 13.0652328,28.53025 C13.0652328,28.53025 18.0677246,29.1064792 18.0677246,24.6825833 L18.0677246,17.0527708 L49.6672874,17.0527708 L49.6672874,24.6825833 C49.6672874,28.3691042 54.6694295,28.53025 54.6694295,28.53025 C58.4915934,28.53025 61.5891235,31.9734583 61.5891235,36.2234583 L61.5891235,38.647375 Z M12.4699978,14.745375 L12.4699978,12.4092917 L12.4699978,4.4455 L12.4699978,2.30810417 L57.2196372,2.30810417 L57.2196372,8.52797917 C57.2196372,11.9595 54.714894,14.745375 51.6250579,14.745375 L15.9917464,14.745375 L12.4699978,14.745375 Z M10.3943694,12.3416458 C8.60691585,12.1539375 6.17841311,11.5585833 4.65185574,9.78704167 C1.99917814,6.70933333 2.07611803,4.4455 2.07611803,4.4455 L10.3943694,4.4455 L10.3943694,12.3416458 Z M54.7072,26.2217917 C54.1917027,26.197 51.7436153,25.8428333 51.7436153,24.6825833 L51.7436153,17.0502917 C55.9183038,16.97875 59.2952656,13.1845625 59.2952656,8.52797917 L59.2952656,-0.000354166667 L10.3943694,-0.000354166667 L10.3943694,0.768895833 L10.3943694,2.13704167 L0.0767300546,2.13704167 L0.00188852459,4.358375 C-0.0166469945,4.89989583 0.0491016393,7.78245833 3.1532765,11.3839792 C5.15965902,13.712625 8.15401967,14.4560208 10.3943694,14.6607292 L10.3943694,15.514625 L10.3943694,17.0527708 L15.9917464,17.0527708 L15.9917464,24.6825833 C15.9917464,25.1100625 15.9917464,26.2451667 13.6188503,26.2451667 C13.4135607,26.2451667 13.2803148,26.2334792 13.2789158,26.2334792 L13.1725989,26.2217917 L13.0652328,26.2217917 C8.1047082,26.2217917 4.06956066,30.7076667 4.06956066,36.2234583 L4.06956066,50.9691875 L22.0637027,50.9691875 L22.6732765,49.8826042 C24.5834842,46.4723333 28.9778011,44.2697708 33.8669814,44.2697708 C38.7568612,44.2697708 43.1511781,46.4723333 45.0613858,49.8826042 L45.6709596,50.9691875 L63.6651016,50.9691875 L63.6651016,36.2234583 C63.6651016,30.7221875 59.6502383,26.2441042 54.7072,26.2217917 L54.7072,26.2217917 Z" id="Fill-1" fill="#2E395F" mask="url(#mask-2)"></path>
            </g>
        </g>
    </g>
</svg>