<?xml version="1.0" encoding="UTF-8" standalone="no"?>
<svg width="233px" height="42px" viewBox="0 0 233 42" version="1.1" xmlns="http://www.w3.org/2000/svg" xmlns:xlink="http://www.w3.org/1999/xlink">
    <!-- Generator: Sketch 41.2 (35397) - http://www.bohemiancoding.com/sketch -->
    <title>Page 1</title>
    <desc>Created with Sketch.</desc>
    <defs>
        <polygon id="path-1" points="0.392980725 8.41958042 7.88518406 8.41958042 7.88518406 0.332092308 0.392980725 0.332092308 0.392980725 8.41958042"></polygon>
        <polygon id="path-3" points="0.170880473 8.41958042 7.66308381 8.41958042 7.66308381 0.332092308 0.170880473 0.332092308 0.170880473 8.41958042"></polygon>
        <polygon id="path-5" points="3.83224769 8.41958042 7.62973046 8.41958042 7.62973046 0.34239627 0.0347649205 0.34239627 0.0347649205 8.41958042 3.83224769 8.41958042"></polygon>
    </defs>
    <g id="Welcome" stroke="none" stroke-width="1" fill="none" fill-rule="evenodd">
        <g id="Desktop" transform="translate(-180.000000, -57.000000)">
            <g id="header">
                <g id="Page-1" transform="translate(180.000000, 57.000000)">
                    <path d="M63.982376,22.5807935 L71.6020238,22.5807935 C71.9859705,22.5807935 72.3146643,22.5170452 72.5868954,22.3895487 C72.8595299,22.2624531 73.0950602,22.0820336 73.2930831,21.8490918 C73.4915093,21.616551 73.6492017,21.3419124 73.7673702,21.0259776 C73.884732,20.7100429 73.9746691,20.3640382 74.0367782,19.9867608 L74.3340142,18.390649 L76.972841,18.390649 L76.6945604,24.659227 L54.3925816,24.659227 L54.3925816,22.8470126 L55.9908806,22.8470126 C56.263515,22.8470126 56.5175974,22.8245604 56.7531277,22.7804578 C56.9882547,22.7363552 57.195957,22.6445417 57.3754279,22.5058191 C57.5548987,22.3674974 57.6944424,22.162621 57.7936555,21.8907888 C57.8928686,21.6193576 57.9424752,21.2617259 57.9424752,20.8182946 L57.9424752,4.35681212 C57.9424752,3.86927832 57.8928686,3.48117576 57.7936555,3.19290536 C57.6944424,2.90463497 57.5581252,2.68291935 57.3847039,2.52775851 C57.2112826,2.37259767 57.0068068,2.26995897 56.7716798,2.21984242 C56.5361494,2.17012681 56.2760175,2.145269 55.9908806,2.145269 L54.3925816,2.145269 L54.3925816,0.349492774 L75.5233616,0.349492774 L75.6721813,6.61807086 L73.0148024,6.61807086 L72.8288787,5.00511981 C72.7292622,4.17358601 72.4941352,3.53650443 72.122691,3.09307319 C71.7508435,2.64964196 71.1745201,2.42792634 70.3941243,2.42792634 L63.982376,2.42792634 L63.982376,10.9413249 L73.0148024,10.9413249 L73.0148024,12.9864811 L63.982376,12.9864811 L63.982376,22.5807935 Z" id="Fill-1" fill="#FEFEFE"></path>
                    <path d="M83.8977551,19.5876727 C83.8977551,20.5635422 84.0711764,21.2948429 84.4184223,21.7827776 C84.7648616,22.2703114 85.3101304,22.5140783 86.0538254,22.5140783 C86.598691,22.5140783 87.0911268,22.4118406 87.5311329,22.2065632 C87.9707357,22.0016867 88.3490361,21.7106098 88.6648242,21.3337333 C88.9806123,20.9568569 89.2221922,20.4997939 89.3895639,19.9617427 C89.5569356,19.4244932 89.6404199,18.8226937 89.6404199,18.1579478 L89.6404199,15.5971925 L87.9308085,15.6966238 C87.174611,15.7299012 86.5365819,15.8381529 86.016318,16.0209781 C85.4960542,16.2042042 85.081053,16.4559897 84.7713145,16.7775375 C84.4611726,17.0990853 84.2385481,17.4924 84.1022309,17.9582834 C83.9655104,18.423766 83.8977551,18.9670294 83.8977551,19.5876727 M87.280277,8.04803636 C86.7971172,8.04803636 86.3909887,8.13944895 86.0631015,8.32227413 C85.7344076,8.5050993 85.4710492,8.76049324 85.2730263,9.08725315 C85.0746001,9.41441399 84.9354597,9.80211562 84.8547987,10.2511599 C84.7741376,10.7002042 84.7342104,11.1909455 84.7342104,11.7229828 C83.0241957,11.7229828 81.7388616,11.5509828 80.8778047,11.2073837 C80.0163445,10.8637846 79.586421,10.2760177 79.586421,9.44488485 C79.586421,8.82424149 79.7933166,8.2922042 80.2087211,7.84837203 C80.6237223,7.40534172 81.1871399,7.0449035 81.8997804,6.76745828 C82.6120177,6.49081492 83.4424234,6.28834406 84.3901909,6.16084755 C85.3379585,6.03335105 86.3510615,5.9696028 87.4286934,5.9696028 C88.7668605,5.9696028 89.9344294,6.07224149 90.9322069,6.27711795 C91.9291777,6.48239534 92.7595834,6.81196177 93.4226173,7.26661911 C94.085248,7.72127646 94.5841367,8.317062 94.9184769,9.05397576 C95.2532203,9.79129044 95.4201887,10.6917846 95.4201887,11.7558592 L95.4201887,20.4356448 C95.4201887,20.9011273 95.4601159,21.2896308 95.5411803,21.5999524 C95.6214381,21.9102741 95.7484793,22.1568476 95.9219006,22.3396727 C96.0953218,22.5224979 96.3308522,22.6532019 96.6280882,22.7301809 C96.9257275,22.8079618 97.2846693,22.8468522 97.7061234,22.8468522 L97.8549431,22.8468522 L97.8549431,24.6590667 L90.7741112,24.6590667 L89.97476,22.3148149 L89.6404199,22.3148149 C89.2189658,22.7694723 88.8225166,23.1655935 88.4510724,23.5035795 C88.0792249,23.8419664 87.6827757,24.1218172 87.2617249,24.3431319 C86.8402709,24.5652485 86.3663871,24.728428 85.8396703,24.8338732 C85.3129535,24.9389175 84.6906534,24.9918406 83.9723666,24.9918406 C83.1294584,24.9918406 82.3458361,24.8807823 81.6210964,24.6590667 C80.8963567,24.437752 80.2643773,24.0969594 79.7255613,23.636689 C79.1863421,23.1768196 78.7620649,22.6002788 78.4527297,21.9074676 C78.1425879,21.2146564 77.9877186,20.3971552 77.9877186,19.4545632 C77.9877186,17.6034583 78.6967294,16.2346751 80.1159609,15.3478126 C81.5343858,14.4609501 83.6682743,13.9786284 86.5184332,13.9008476 L89.6404199,13.8014163 L89.6404199,11.9222462 C89.6404199,11.3569315 89.6154149,10.8361203 89.5662117,10.3594117 C89.5166051,9.88270303 89.4109391,9.47254918 89.2500203,9.12895012 C89.0891014,8.78535105 88.850748,8.51953287 88.5345566,8.33069371 C88.2187685,8.14225548 87.8005409,8.04803636 87.280277,8.04803636" id="Fill-3" fill="#FEFEFE"></path>
                    <path d="M105.968882,24.992041 C104.593611,24.992041 103.419589,24.8918079 102.44722,24.6925445 C101.474044,24.4928802 100.681549,24.2158359 100.068121,23.8610107 C99.4550973,23.5065865 99.0090416,23.0852065 98.7299543,22.5972718 C98.4512703,22.109738 98.31213,21.5833138 98.31213,21.0175981 C98.31213,20.4635096 98.4327183,20.0172718 98.6742982,19.6792858 C98.9158781,19.3412998 99.219567,19.0782881 99.5849617,18.889449 C99.9503563,18.7010107 100.337933,18.5763207 100.746481,18.515379 C101.155433,18.4544373 101.526877,18.4239664 101.86162,18.4239664 C101.86162,19.1332159 101.960833,19.7706984 102.158856,20.3360131 C102.356879,20.9013277 102.635563,21.3808429 102.995312,21.7745585 C103.354657,22.1678732 103.784983,22.4701762 104.287099,22.6806657 C104.78881,22.8911552 105.349002,22.9961995 105.968882,22.9961995 C106.625463,22.9961995 107.192107,22.9356587 107.669217,22.8133744 C108.145924,22.6918918 108.536324,22.5226984 108.840416,22.3065958 C109.143702,22.0900923 109.369956,21.8407124 109.518372,21.558055 C109.667192,21.2753977 109.7414,20.9791086 109.7414,20.668386 C109.7414,20.2919105 109.663965,19.9563301 109.509096,19.6628476 C109.354227,19.3689641 109.097321,19.0919198 108.737976,18.8313138 C108.378631,18.5707077 107.898295,18.3157147 107.297773,18.0663347 C106.696445,17.8169548 105.95033,17.5535422 105.058218,17.2764979 C104.029387,16.955351 103.12195,16.6141576 102.335504,16.2541203 C101.548655,15.8936821 100.886025,15.4835282 100.347209,15.0232578 C99.8079895,14.5633883 99.3990379,14.0369641 99.1203539,13.4435841 C98.8416699,12.8510061 98.7021263,12.1718266 98.7021263,11.4068476 C98.7021263,10.4979338 98.897326,9.70529044 99.2877256,9.02931841 C99.6777219,8.35334639 100.232267,7.7904373 100.950957,7.34139301 C101.669244,6.89234872 102.530704,6.55716923 103.534128,6.33545361 C104.537955,6.113738 105.652691,6.00267972 106.879545,6.00267972 C108.080992,6.00267972 109.103371,6.09449324 109.945876,6.27731841 C110.788381,6.46014359 111.476016,6.70110396 112.008783,7.00060047 C112.541549,7.29969604 112.931545,7.63808298 113.179578,8.01495944 C113.427611,8.3918359 113.551426,8.77432541 113.551426,9.16202704 C113.551426,9.92700606 113.250963,10.508759 112.650038,10.9080876 C112.049113,11.3070154 111.054562,11.5066797 109.667192,11.5066797 C109.667192,10.3760503 109.385281,9.49760746 108.821461,8.87135105 C108.25764,8.24509464 107.424411,7.9315655 106.321774,7.9315655 C105.913226,7.9315655 105.5196,7.976069 105.141703,8.06467506 C104.763806,8.15328112 104.435515,8.28639068 104.156831,8.4636028 C103.878147,8.64121585 103.655119,8.86012494 103.487747,9.120731 C103.320779,9.38093613 103.236892,9.68885221 103.236892,10.0432765 C103.236892,10.4093277 103.313923,10.7360876 103.469195,11.024358 C103.624065,11.3126284 103.896699,11.5872671 104.287099,11.8474723 C104.677095,12.1080783 105.206635,12.37109 105.876122,12.6373091 C106.544802,12.9035282 107.399809,13.1974117 108.440337,13.5185585 C109.282842,13.7847776 110.060415,14.0866797 110.773055,14.4250667 C111.485292,14.7630527 112.09872,15.1511552 112.612934,15.5885725 C113.126745,16.0267916 113.526421,16.5255515 113.811558,17.0852531 C114.096291,17.6449548 114.239061,18.2852438 114.239061,19.0057193 C114.239061,19.9479105 114.055961,20.7906704 113.690566,21.5331972 C113.325171,22.2761249 112.789582,22.9023814 112.083394,23.4123674 C111.377207,23.9223534 110.509697,24.3128615 109.481268,24.5842928 C108.45284,24.8561249 107.282044,24.992041 105.968882,24.992041" id="Fill-5" fill="#FEFEFE"></path>
                    <path d="M125.791299,22.24818 C126.286961,22.24818 126.760442,22.2177091 127.21295,22.1567674 C127.665056,22.0962266 128.089333,22.0212522 128.486589,21.9322452 L128.486589,24.1437883 C128.287759,24.2327953 128.018351,24.3266135 127.677558,24.4264457 C127.336765,24.5262779 126.940316,24.6176904 126.488211,24.7006834 C126.035702,24.7840774 125.524714,24.8530378 124.955247,24.9087674 C124.384973,24.9636951 123.7659,24.9921613 123.096413,24.9921613 C122.241406,24.9921613 121.467059,24.9003478 120.773374,24.7175226 C120.079286,24.5346974 119.491266,24.2295879 119.008107,23.8029958 C118.524543,23.3764037 118.153503,22.8219142 117.892564,22.1399282 C117.632835,21.4583431 117.502568,20.6187907 117.502568,19.6208699 L117.502568,8.72994219 L114.640713,8.72994219 L114.640713,6.98388159 C115.458213,6.98388159 116.189002,6.83994685 116.833484,6.55167646 C117.477563,6.26340606 117.991777,5.9310331 118.376127,5.55375571 C119.156926,4.82245501 119.738896,3.69703776 120.122843,2.17830583 L123.282337,2.17830583 L123.282337,6.40212867 L128.151845,6.40212867 L128.151845,8.72994219 L123.282337,8.72994219 L123.282337,19.2720587 C123.282337,20.3028559 123.477536,21.0566089 123.867936,21.5333175 C124.257932,22.0100261 124.899188,22.24818 125.791299,22.24818" id="Fill-7" fill="#FEFEFE"></path>
                    <path d="M151.497659,22.2814573 C152.427278,22.2814573 153.254054,22.1844317 153.978793,21.9903804 C154.703533,21.7967301 155.351242,21.5445436 155.920709,21.233821 C156.490982,20.9239002 156.989468,20.5746881 157.417375,20.1861846 C157.844072,19.798483 158.219146,19.4159935 158.541387,19.039117 C158.739006,19.1722266 158.897505,19.377103 159.015674,19.6541473 C159.133036,19.9315925 159.191918,20.2142499 159.191918,20.5025203 C159.191918,20.978828 159.049552,21.4807953 158.764415,22.0072196 C158.479278,22.5336438 158.002571,23.018772 157.333084,23.4622033 C156.664404,23.9056345 155.777939,24.2712848 154.676108,24.5595552 C153.572665,24.8474247 152.209896,24.9921613 150.586996,24.9921613 C148.381319,24.9921613 146.454729,24.6926648 144.806823,24.0940727 C143.158918,23.4950797 141.790099,22.6475086 140.699965,21.5497557 C139.609427,20.4524037 138.791927,19.1333361 138.247062,17.5925529 C137.70139,16.0517697 137.429159,14.3445995 137.429159,12.4710424 C137.429159,10.6311636 137.708246,8.94604476 138.265614,7.41608671 C138.822579,5.8865296 139.649758,4.57307506 140.746345,3.47532214 C141.842932,2.37797016 143.211751,1.52478601 144.853203,0.914967832 C146.49506,0.30514965 148.394224,4.00932401e-05 150.549891,4.00932401e-05 C152.011873,4.00932401e-05 153.285108,0.10307972 154.36879,0.307956177 C155.452874,0.513233566 156.354665,0.79268345 157.072952,1.14750862 C157.791239,1.5023338 158.330055,1.92090723 158.690206,2.40282797 C159.049552,2.88514965 159.229022,3.40355524 159.229022,3.95764382 C159.229022,4.37902378 159.126583,4.76993287 158.92251,5.12997016 C158.717631,5.49040839 158.413539,5.80313566 158.011847,6.06935478 C157.608542,6.33557389 157.110056,6.54325688 156.515181,6.69280466 C155.920709,6.84275338 155.239123,6.91732681 154.471229,6.91732681 C154.471229,6.35201212 154.402667,5.78950396 154.26635,5.22980233 C154.130033,4.6701007 153.897729,4.16292121 153.570245,3.70826387 C153.241551,3.25400746 152.810821,2.88514965 152.278458,2.60249231 C151.744885,2.31983497 151.082658,2.17830583 150.289356,2.17830583 C149.08791,2.17830583 148.071983,2.4056345 147.241578,2.86029184 C146.411575,3.31494918 145.745718,3.98009604 145.244006,4.8557324 C144.742295,5.73136876 144.380126,6.80947599 144.157098,8.08965315 C143.934071,9.3698303 143.822355,10.830427 143.822355,12.4710424 C143.822355,14.1116578 143.958672,15.5473967 144.230903,16.7774573 C144.503538,18.0079189 144.943141,19.0306974 145.550518,19.8453921 C146.157896,20.6604876 146.947165,21.2703058 147.919937,21.6744457 C148.89271,22.0793874 150.085284,22.2814573 151.497659,22.2814573" id="Fill-9" fill="#FEFEFE"></path>
                    <path d="M166.54365,15.4640429 C166.54365,16.6724531 166.615035,17.7365277 166.757402,18.6566676 C166.899769,19.5768075 167.12925,20.3473995 167.445038,20.9680429 C167.761229,21.5886862 168.173004,22.0569753 168.681169,22.37291 C169.18893,22.6888448 169.808407,22.8468121 170.5396,22.8468121 C171.270389,22.8468121 171.887043,22.6888448 172.388755,22.37291 C172.890467,22.0569753 173.299418,21.5886862 173.615206,20.9680429 C173.930994,20.3473995 174.157249,19.5768075 174.293566,18.6566676 C174.429883,17.7365277 174.498042,16.6724531 174.498042,15.4640429 C174.498042,14.2448075 174.426657,13.1775254 174.28429,12.2633995 C174.141923,11.3484718 173.912442,10.5867002 173.596654,9.97688205 C173.280866,9.3674648 172.868688,8.91000093 172.360927,8.60529231 C171.852762,8.30018275 171.233285,8.14782844 170.502092,8.14782844 C169.771303,8.14782844 169.151826,8.30018275 168.643661,8.60529231 C168.135497,8.91000093 167.726948,9.3674648 167.41721,9.97688205 C167.107068,10.5867002 166.884443,11.3484718 166.748126,12.2633995 C166.611809,13.1775254 166.54365,14.2448075 166.54365,15.4640429 M180.389526,15.4640429 C180.389526,18.6678937 179.549844,21.056649 177.871288,22.6307096 C176.192327,24.2047702 173.723695,24.9922014 170.465392,24.9922014 C168.940897,24.9922014 167.572079,24.7949427 166.357727,24.401628 C165.143374,24.0083133 164.112122,23.4177399 163.263568,22.6307096 C162.415014,21.8436793 161.764079,20.8517725 161.311973,19.6541874 C160.859868,18.4570033 160.634017,17.0601548 160.634017,15.4640429 C160.634017,12.260593 161.473296,9.87704988 163.152256,8.31421538 C164.830813,6.75138089 167.305897,5.9695627 170.576704,5.9695627 C172.100391,5.9695627 173.466387,6.16361399 174.674689,6.55171655 C175.882589,6.93981911 176.911018,7.52718508 177.759975,8.31421538 C178.608126,9.10124569 179.258658,10.0907469 179.710763,11.2823179 C180.163272,12.473889 180.389526,13.867931 180.389526,15.4640429" id="Fill-11" fill="#FEFEFE"></path>
                    <path d="M187.890481,19.5876727 C187.890481,20.5635422 188.063902,21.2948429 188.410745,21.7827776 C188.757184,22.2703114 189.302856,22.5140783 190.046148,22.5140783 C190.591014,22.5140783 191.083853,22.4118406 191.523859,22.2065632 C191.963462,22.0016867 192.341359,21.7106098 192.657147,21.3337333 C192.973338,20.9568569 193.214918,20.4997939 193.381887,19.9617427 C193.549258,19.4244932 193.632743,18.8226937 193.632743,18.1579478 L193.632743,15.5971925 L191.923131,15.6966238 C191.167337,15.7299012 190.529308,15.8381529 190.009044,16.0209781 C189.48878,16.2042042 189.073376,16.4559897 188.763637,16.7775375 C188.453899,17.0990853 188.230871,17.4924 188.094957,17.9582834 C187.958236,18.423766 187.890481,18.9670294 187.890481,19.5876727 M191.273003,8.04803636 C190.78944,8.04803636 190.383715,8.13944895 190.055424,8.32227413 C189.727134,8.5050993 189.463372,8.76049324 189.265349,9.08725315 C189.067326,9.41441399 188.927782,9.80211562 188.847525,10.2511599 C188.766864,10.7002042 188.726533,11.1909455 188.726533,11.7229828 C187.016922,11.7229828 185.731184,11.5509828 184.870531,11.2073837 C184.009071,10.8637846 183.578744,10.2760177 183.578744,9.44488485 C183.578744,8.82424149 183.786043,8.2922042 184.201447,7.84837203 C184.616448,7.40534172 185.179866,7.0449035 185.892506,6.76745828 C186.604744,6.49081492 187.435149,6.28834406 188.382917,6.16084755 C189.330685,6.03335105 190.343384,5.9696028 191.421419,5.9696028 C192.759587,5.9696028 193.927156,6.07224149 194.92453,6.27711795 C195.921904,6.48239534 196.752309,6.81196177 197.41494,7.26661911 C198.077571,7.72127646 198.576459,8.317062 198.9108,9.05397576 C199.245543,9.79129044 199.412511,10.6917846 199.412511,11.7558592 L199.412511,20.4356448 C199.412511,20.9011273 199.452842,21.2896308 199.533503,21.5999524 C199.613761,21.9102741 199.741205,22.1568476 199.914627,22.3396727 C200.088048,22.5224979 200.323578,22.6532019 200.620814,22.7301809 C200.918454,22.8079618 201.277395,22.8468522 201.698446,22.8468522 L201.847266,22.8468522 L201.847266,24.6590667 L194.766837,24.6590667 L193.967486,22.3148149 L193.632743,22.3148149 C193.211692,22.7694723 192.815243,23.1655935 192.443395,23.5035795 C192.071951,23.8419664 191.675502,24.1218172 191.254048,24.3431319 C190.832997,24.5652485 190.35871,24.728428 189.832396,24.8338732 C189.30568,24.9389175 188.682976,24.9918406 187.964689,24.9918406 C187.122184,24.9918406 186.338562,24.8807823 185.613419,24.6590667 C184.889083,24.437752 184.257103,24.0969594 183.717884,23.636689 C183.179068,23.1768196 182.754791,22.6002788 182.445052,21.9074676 C182.134911,21.2146564 181.980445,20.3971552 181.980445,19.4545632 C181.980445,17.6034583 182.689455,16.2346751 184.108284,15.3478126 C185.527112,14.4609501 187.661,13.9786284 190.510756,13.9008476 L193.632743,13.8014163 L193.632743,11.9222462 C193.632743,11.3569315 193.608141,10.8361203 193.558938,10.3594117 C193.509331,9.88270303 193.403665,9.47254918 193.242746,9.12895012 C193.081424,8.78535105 192.843071,8.51953287 192.527283,8.33069371 C192.211495,8.14225548 191.793267,8.04803636 191.273003,8.04803636" id="Fill-13" fill="#FEFEFE"></path>
                    <path d="M209.961205,24.992041 C208.586337,24.992041 207.412315,24.8918079 206.439542,24.6925445 C205.46677,24.4928802 204.674275,24.2158359 204.060848,23.8610107 C203.44742,23.5065865 203.001364,23.0852065 202.72268,22.5972718 C202.443593,22.109738 202.304453,21.5833138 202.304453,21.0175981 C202.304453,20.4635096 202.425041,20.0172718 202.667024,19.6792858 C202.908604,19.3412998 203.21189,19.0782881 203.577688,18.889449 C203.942679,18.7010107 204.330255,18.5763207 204.739207,18.515379 C205.147755,18.4544373 205.519603,18.4239664 205.853943,18.4239664 C205.853943,19.1332159 205.953156,19.7706984 206.151582,20.3360131 C206.349605,20.9013277 206.628289,21.3808429 206.987634,21.7745585 C207.347383,22.1678732 207.77771,22.4701762 208.279421,22.6806657 C208.781133,22.8911552 209.341728,22.9961995 209.961205,22.9961995 C210.617786,22.9961995 211.184833,22.9356587 211.661943,22.8133744 C212.13865,22.6918918 212.52905,22.5226984 212.832739,22.3065958 C213.136024,22.0900923 213.362682,21.8407124 213.511098,21.558055 C213.659918,21.2753977 213.733723,20.9791086 213.733723,20.668386 C213.733723,20.2919105 213.656288,19.9563301 213.501419,19.6628476 C213.346953,19.3689641 213.089644,19.0919198 212.730299,18.8313138 C212.370954,18.5707077 211.891021,18.3157147 211.290096,18.0663347 C210.689171,17.8169548 209.942653,17.5535422 209.050541,17.2764979 C208.022113,16.955351 207.114676,16.6141576 206.327827,16.2541203 C205.540978,15.8936821 204.878347,15.4835282 204.339532,15.0232578 C203.800716,14.5633883 203.391764,14.0369641 203.11308,13.4435841 C202.833993,12.8510061 202.694449,12.1718266 202.694449,11.4068476 C202.694449,10.4979338 202.890052,9.70529044 203.280452,9.02931841 C203.670448,8.35334639 204.224589,7.7904373 204.943683,7.34139301 C205.66197,6.89234872 206.52343,6.55716923 207.526854,6.33545361 C208.530277,6.113738 209.645417,6.00267972 210.872271,6.00267972 C212.073315,6.00267972 213.095694,6.09449324 213.938199,6.27731841 C214.780704,6.46014359 215.468339,6.70110396 216.001509,7.00060047 C216.533872,7.29969604 216.924271,7.63808298 217.172304,8.01495944 C217.419934,8.3918359 217.544152,8.77432541 217.544152,9.16202704 C217.544152,9.92700606 217.243689,10.508759 216.642361,10.9080876 C216.041436,11.3070154 215.046885,11.5066797 213.659918,11.5066797 C213.659918,10.3760503 213.378008,9.49760746 212.814187,8.87135105 C212.250366,8.24509464 211.416734,7.9315655 210.3145,7.9315655 C209.905549,7.9315655 209.512326,7.976069 209.134429,8.06467506 C208.756532,8.15328112 208.427838,8.28639068 208.149557,8.4636028 C207.87047,8.64121585 207.647845,8.86012494 207.480474,9.120731 C207.313102,9.38093613 207.229618,9.68885221 207.229618,10.0432765 C207.229618,10.4093277 207.306649,10.7360876 207.461921,11.024358 C207.616791,11.3126284 207.889022,11.5872671 208.279421,11.8474723 C208.669821,12.1080783 209.199361,12.37109 209.868444,12.6373091 C210.537528,12.9035282 211.392535,13.1974117 212.433063,13.5185585 C213.275568,13.7847776 214.053141,14.0866797 214.765378,14.4250667 C215.478018,14.7630527 216.091043,15.1511552 216.60566,15.5885725 C217.119471,16.0267916 217.518743,16.5255515 217.80388,17.0852531 C218.089017,17.6449548 218.231787,18.2852438 218.231787,19.0057193 C218.231787,19.9479105 218.048687,20.7906704 217.683292,21.5331972 C217.317494,22.2761249 216.781905,22.9023814 216.075717,23.4123674 C215.369529,23.9223534 214.50202,24.3128615 213.473994,24.5842928 C212.445162,24.8561249 211.274367,24.992041 209.961205,24.992041" id="Fill-15" fill="#FEFEFE"></path>
                    <path d="M229.783824,22.24818 C230.279486,22.24818 230.752966,22.2177091 231.205475,22.1567674 C231.65758,22.0962266 232.081857,22.0212522 232.47871,21.9322452 L232.47871,24.1437883 C232.280284,24.2327953 232.010472,24.3266135 231.670486,24.4264457 C231.32929,24.5262779 230.933244,24.6176904 230.481138,24.7006834 C230.028227,24.7840774 229.517239,24.8530378 228.947772,24.9087674 C228.377498,24.9636951 227.758424,24.9921613 227.088937,24.9921613 C226.23393,24.9921613 225.459584,24.9003478 224.766302,24.7175226 C224.072213,24.5346974 223.483791,24.2295879 223.000631,23.8029958 C222.517068,23.3764037 222.145624,22.8219142 221.885492,22.1399282 C221.62536,21.4583431 221.495092,20.6187907 221.495092,19.6208699 L221.495092,8.72994219 L218.633237,8.72994219 L218.633237,6.98388159 C219.450737,6.98388159 220.181527,6.83994685 220.826009,6.55167646 C221.470087,6.26340606 221.984302,5.9310331 222.368652,5.55375571 C223.149047,4.82245501 223.73142,3.69703776 224.115367,2.17830583 L227.274861,2.17830583 L227.274861,6.40212867 L232.14437,6.40212867 L232.14437,8.72994219 L227.274861,8.72994219 L227.274861,19.2720587 C227.274861,20.3028559 227.470061,21.0566089 227.860057,21.5333175 C228.250457,22.0100261 228.891712,22.24818 229.783824,22.24818" id="Fill-17" fill="#FEFEFE"></path>
                    <path d="M57.2423774,41.3770256 C56.7451019,41.3770256 56.3309074,41.3301166 55.9989871,41.2366993 C55.6678734,41.1440839 55.4020952,41.0238042 55.2016524,40.8770629 C55.0020163,40.7303217 54.8596495,40.5655385 54.7749554,40.3827133 C54.6898579,40.1998881 54.6479142,40.0190676 54.6479142,39.8398508 C54.6479142,39.6498089 54.6830017,39.4906387 54.7531769,39.3615385 C54.823352,39.2324382 54.9173221,39.1273939 55.0342807,39.0448019 C55.1512392,38.9622098 55.2847333,38.9032727 55.4343596,38.8671888 C55.5839859,38.8311049 55.7396617,38.8130629 55.9017905,38.8130629 C55.9017905,39.1289977 55.9397012,39.405641 56.0155226,39.6441958 C56.091344,39.8819487 56.1958001,40.0812121 56.3288908,40.2399814 C56.4623849,40.3995524 56.6216905,40.5194312 56.807211,40.6004196 C56.9931347,40.681007 57.195594,40.7211002 57.4153954,40.7211002 C57.6315671,40.7211002 57.824347,40.6910303 57.9937353,40.6300886 C58.1635268,40.5687459 58.3075068,40.484951 58.4264819,40.3775012 C58.5450537,40.2696503 58.6353941,40.1437576 58.6966965,39.99862 C58.7579989,39.8530816 58.7882468,39.6967179 58.7882468,39.5283263 C58.7882468,39.3418928 58.7507394,39.1763077 58.6753213,39.0307692 C58.5990966,38.8860326 58.4849612,38.7513193 58.3321085,38.6282331 C58.1784491,38.5047459 57.9860725,38.3864709 57.7533653,38.2738089 C57.5210614,38.1611469 57.2496369,38.0396643 56.9398984,37.9105641 C56.5539352,37.7529977 56.2288711,37.591021 55.9643028,37.424634 C55.6993312,37.2582471 55.4859827,37.0778275 55.3238539,36.8845781 C55.1613219,36.6909277 55.0451699,36.4812401 54.9749948,36.2559161 C54.9044164,36.0297902 54.8697321,35.7828159 54.8697321,35.5141911 C54.8697321,35.1774079 54.9378907,34.8726993 55.0746112,34.6004662 C55.211735,34.3282331 55.4012885,34.0952914 55.6424651,33.901641 C55.884045,33.7083916 56.1703918,33.5596457 56.5019088,33.4558042 C56.8334258,33.3519627 57.1939808,33.2998415 57.5831704,33.2998415 C57.9901055,33.2998415 58.3417878,33.3335198 58.6370073,33.3996737 C58.9326301,33.4658275 59.1770332,33.5560373 59.3698131,33.670704 C59.5621898,33.7853706 59.7057665,33.9204848 59.7993333,34.0764476 C59.8933034,34.2324103 59.9396836,34.4 59.9396836,34.5792168 C59.9396836,34.7075152 59.9118555,34.8281958 59.8561994,34.9388531 C59.8001399,35.0499114 59.7158491,35.1469371 59.602117,35.2291282 C59.4883849,35.3113193 59.3460181,35.3762704 59.1750166,35.4223776 C59.0040152,35.4696876 58.8047823,35.4925408 58.5777214,35.4925408 C58.5777214,35.3385828 58.5567495,35.1725967 58.5156124,34.9953846 C58.4740719,34.8181725 58.40672,34.6533893 58.3127498,34.501035 C58.219183,34.3490816 58.0973848,34.2223869 57.9481618,34.1217529 C57.7985355,34.0215198 57.6174514,33.9714033 57.4045062,33.9714033 C57.2568964,33.9714033 57.1165462,33.9930536 56.9830521,34.0363543 C56.849558,34.0792541 56.7334061,34.1438042 56.634193,34.2296037 C56.5353832,34.3158042 56.4567386,34.4220513 56.3994693,34.5495478 C56.3413933,34.6766434 56.3127586,34.8225828 56.3127586,34.986965 C56.3127586,35.141324 56.3377636,35.2864615 56.38858,35.4223776 C56.4389932,35.5586946 56.5317534,35.6922051 56.6668607,35.8225082 C56.801968,35.954014 56.9874885,36.084317 57.2238254,36.215021 C57.459759,36.3457249 57.7650612,36.4868531 58.1401351,36.6372028 C58.5184355,36.7911608 58.8406765,36.9487273 59.1076646,37.1099021 C59.3742495,37.2714779 59.5932443,37.4442797 59.7642457,37.6283077 C59.9352472,37.8131375 60.0598686,38.0152075 60.1373032,38.2361212 C60.2147378,38.4562331 60.2534551,38.7004009 60.2534551,38.9690256 C60.2534551,39.3242517 60.18328,39.6494079 60.0425264,39.9448951 C59.9021762,40.2399814 59.7001202,40.4937716 59.4371651,40.7050629 C59.17421,40.9167552 58.8580186,41.0811375 58.4885909,41.1998135 C58.1191632,41.3176876 57.7037587,41.3770256 57.2423774,41.3770256" id="Fill-19" fill="#FEFEFE"></path>
                    <path d="M68.3088744,41.2693352 L68.3088744,40.683573 L68.7738854,40.683573 C68.856563,40.683573 68.9323844,40.6755543 69.0009463,40.659517 C69.0695082,40.6430788 69.1287941,40.6102023 69.1792073,40.5600858 C69.2296205,40.5099692 69.2691444,40.4382023 69.2981824,40.3447851 C69.326817,40.2517688 69.3417393,40.1262769 69.3417393,39.9691114 L69.3417393,34.7076755 C69.3417393,34.5501091 69.326817,34.4250182 69.2981824,34.3316009 C69.2691444,34.2385846 69.2296205,34.1672186 69.1792073,34.1171021 C69.1287941,34.0669855 69.0695082,34.0333072 69.0009463,34.0172699 C68.9323844,34.0012326 68.856563,33.993214 68.7738854,33.993214 L68.3088744,33.993214 L68.3088744,33.4126639 L72.1309991,33.4126639 L72.1309991,33.993214 L71.665988,33.993214 C71.5901666,33.993214 71.5171684,34.0012326 71.4469932,34.0172699 C71.3764148,34.0333072 71.3163223,34.06458 71.2659091,34.111489 C71.215496,34.1579972 71.1747621,34.2253538 71.1441109,34.3127571 C71.113863,34.4005613 71.0985374,34.5180345 71.0985374,34.6647758 L71.0985374,40.5977734 L73.1578145,40.5977734 C73.4175431,40.5977734 73.6191958,40.5163841 73.7631758,40.3532047 C73.9075591,40.1900252 74.0120152,39.9526732 74.0769474,39.6407478 L74.2552083,38.8132233 L74.8771052,38.8132233 L74.7956375,41.2693352 L68.3088744,41.2693352 Z" id="Fill-21" fill="#FEFEFE"></path>
                    <path d="M86.7325077,36.2072028 C86.6925804,36.0821119 86.6522499,35.9502051 86.6107095,35.8126853 C86.5695723,35.6747646 86.5280319,35.5336364 86.4864914,35.3905035 C86.4453543,35.2469697 86.405427,35.1046387 86.3679196,34.9631096 C86.3296056,34.8219814 86.2965346,34.6864662 86.2674966,34.557366 C86.2352322,34.6684242 86.1973215,34.7907086 86.1541678,34.9230163 C86.1106108,35.055324 86.0650373,35.191641 86.0162374,35.3311655 C85.9678407,35.4710909 85.9190408,35.6106154 85.8702409,35.7505408 C85.8218442,35.8900653 85.7758674,36.0247786 85.7327137,36.1534779 L85.0781492,38.0130023 L87.3164938,38.0130023 L86.7325077,36.2072028 Z M84.8458453,38.684965 L84.5272341,39.6303636 C84.4981961,39.7201725 84.4683515,39.8248159 84.4381036,39.9446946 C84.4070491,40.0645734 84.3917235,40.1696177 84.3917235,40.2586247 C84.3917235,40.3307925 84.4062425,40.393338 84.4352804,40.4470629 C84.4639151,40.5007879 84.5018258,40.5448904 84.5486092,40.5789697 C84.5953927,40.612648 84.648629,40.6387086 84.7079149,40.6567506 C84.767604,40.6747925 84.8297131,40.6836131 84.8946452,40.6836131 L85.3596563,40.6836131 L85.3596563,41.2693753 L82.4784429,41.2693753 L82.4784429,40.6836131 L82.6135502,40.6836131 C82.7107468,40.6836131 82.8002806,40.6731888 82.8809417,40.6515385 C82.962006,40.6298881 83.0378274,40.5897949 83.1080026,40.5304569 C83.1781777,40.4711189 83.2451264,40.3897296 83.308042,40.2858881 C83.3709576,40.1820466 83.4350832,40.0477343 83.5000154,39.882951 L85.9000854,33.412704 L87.4189334,33.412704 L89.7326961,39.8937762 C89.786739,40.0477343 89.8436051,40.1756317 89.902891,40.2778695 C89.9625802,40.3801072 90.027109,40.4606946 90.0976874,40.5196317 C90.1678626,40.5789697 90.2424741,40.6210676 90.3219252,40.6459254 C90.4009731,40.6711841 90.484054,40.6836131 90.5707646,40.6836131 L90.7704008,40.6836131 L90.7704008,41.2693753 L87.1164544,41.2693753 L87.1164544,40.6836131 L87.5487977,40.6836131 C87.6028406,40.6836131 87.6584967,40.6755944 87.7161694,40.6591562 C87.7742454,40.6431189 87.8254652,40.6182611 87.870232,40.5841818 C87.9158055,40.5501026 87.952103,40.5064009 87.981141,40.452676 C88.010179,40.398951 88.0242947,40.3344009 88.0242947,40.2586247 C88.0242947,40.1696177 88.0138087,40.0834172 87.9924336,40.0012261 C87.9702518,39.919035 87.9488766,39.8468671 87.9270981,39.7863263 L87.5383117,38.684965 L84.8458453,38.684965 Z" id="Fill-23" fill="#FEFEFE"></path>
                    <path d="M101.793825,39.9690713 C101.793825,40.1266378 101.80794,40.2517287 101.836978,40.344745 C101.865613,40.4381622 101.906347,40.5103301 101.958777,40.5604466 C102.010803,40.6105632 102.070895,40.6434396 102.139861,40.6594769 C102.208019,40.6755142 102.281824,40.6835329 102.361275,40.6835329 L102.826286,40.6835329 L102.826286,41.2692951 L99.0045649,41.2692951 L99.0045649,40.6835329 L99.4691727,40.6835329 C99.5522536,40.6835329 99.6276717,40.6755142 99.6962336,40.6594769 C99.7647955,40.6434396 99.8244847,40.6105632 99.8748979,40.5604466 C99.925311,40.5103301 99.964835,40.4381622 99.9934696,40.344745 C100.022508,40.2517287 100.037027,40.1266378 100.037027,39.9690713 L100.037027,34.0845865 L99.1501582,34.0845865 C98.9843997,34.0845865 98.8456626,34.1022275 98.7343504,34.1383114 C98.6222315,34.1743953 98.5314878,34.2253138 98.4613126,34.2914676 C98.3907342,34.3580224 98.3387078,34.4390107 98.3044269,34.5360364 C98.2701459,34.6322601 98.2459476,34.7421156 98.2314286,34.8635981 L98.1556072,35.546386 L97.4098956,35.546386 L97.4691815,33.4126238 L104.366913,33.4126238 L104.420956,35.546386 L103.680487,35.546386 L103.599423,34.8635981 C103.5845,34.7421156 103.560302,34.6322601 103.526424,34.5360364 C103.49174,34.4390107 103.439714,34.3580224 103.369539,34.2914676 C103.29896,34.2253138 103.208217,34.1743953 103.096501,34.1383114 C102.984785,34.1022275 102.846048,34.0845865 102.68029,34.0845865 L101.793825,34.0845865 L101.793825,39.9690713 Z" id="Fill-25" fill="#FEFEFE"></path>
                    <path d="M114.822281,40.5978536 L117.038847,40.5978536 C117.15016,40.5978536 117.245743,40.5766042 117.325194,40.53611 C117.404242,40.494814 117.472804,40.4366788 117.530476,40.3613035 C117.588149,40.2859282 117.634126,40.1973221 117.668407,40.0950844 C117.702688,39.9932476 117.728903,39.8813874 117.746648,39.759103 L117.833359,39.243504 L118.600849,39.243504 L118.519381,41.2694154 L112.033021,41.2694154 L112.033021,40.6836531 L112.497629,40.6836531 C112.57708,40.6836531 112.651288,40.6764364 112.719447,40.6620028 C112.788009,40.6479702 112.848101,40.6183012 112.900531,40.5733967 C112.952961,40.5288932 112.993291,40.4623385 113.022329,40.3745343 C113.050964,40.287131 113.065483,40.1716625 113.065483,40.0277277 L113.065483,34.7077557 C113.065483,34.5501893 113.050964,34.4250984 113.022329,34.3316811 C112.993291,34.2386648 112.953767,34.1672988 112.903354,34.1171823 C112.852941,34.0670657 112.793252,34.0333874 112.725093,34.0173501 C112.656128,34.0013128 112.58071,33.9928932 112.497629,33.9928932 L112.033021,33.9928932 L112.033021,33.4127441 L118.179395,33.4127441 L118.222548,35.4390564 L117.449412,35.4390564 L117.395369,34.9174434 C117.366735,34.6488186 117.298173,34.4427394 117.190087,34.2996065 C117.082001,34.1564737 116.914226,34.0847068 116.687568,34.0847068 L114.822281,34.0847068 L114.822281,36.8359049 L117.449412,36.8359049 L117.449412,37.4970424 L114.822281,37.4970424 L114.822281,40.5978536 Z" id="Fill-27" fill="#FEFEFE"></path>
                    <path d="M139.306747,37.217352 L139.92824,37.217352 C140.183936,37.217352 140.397688,37.1836737 140.569092,37.1155152 C140.740094,37.0473566 140.877218,36.9463217 140.979254,36.8116084 C141.082097,36.677296 141.156305,36.5089044 141.201072,36.3068345 C141.246242,36.1047646 141.268827,35.8686154 141.268827,35.6003916 C141.268827,35.3209417 141.243419,35.0843916 141.193409,34.8907413 C141.142593,34.6974918 141.063545,34.5383217 140.955459,34.4148345 C140.847373,34.2913473 140.707023,34.2019394 140.534005,34.1466107 C140.360584,34.0908811 140.151671,34.0632168 139.906865,34.0632168 L139.306747,34.0632168 L139.306747,37.217352 Z M136.527973,40.6838135 L136.992984,40.6838135 C137.068805,40.6838135 137.140997,40.6765967 137.209559,40.6621632 C137.277718,40.6481305 137.338213,40.6180606 137.39024,40.5735571 C137.442669,40.5290536 137.483807,40.4624988 137.514458,40.3746946 C137.545512,40.2868904 137.560838,40.1714219 137.560838,40.0278881 L137.560838,34.6650163 C137.560838,34.5182751 137.545512,34.4008019 137.514458,34.3129977 C137.483807,34.2251935 137.442669,34.1578368 137.39024,34.1117296 C137.338213,34.0648205 137.277718,34.0335478 137.209559,34.0175105 C137.140997,34.0014732 137.068805,33.9930536 136.992984,33.9930536 L136.527973,33.9930536 L136.527973,33.4129044 L140.096015,33.4129044 C141.140979,33.4129044 141.907663,33.5865082 142.396066,33.9341166 C142.884468,34.2817249 143.128468,34.7868998 143.128468,35.449641 C143.128468,35.7395152 143.085315,35.9977156 142.998604,36.2234406 C142.911893,36.4491655 142.797758,36.6460233 142.655794,36.8144149 C142.513024,36.9828065 142.352105,37.1255385 142.171828,37.2418089 C141.991147,37.3584802 141.807643,37.4539021 141.620106,37.5288765 L142.939721,39.7861259 C143.032885,39.9440932 143.124032,40.0792075 143.212356,40.1922704 C143.30068,40.3049324 143.3886,40.3983497 143.476924,40.4709184 C143.565651,40.5450909 143.656395,40.5988159 143.749962,40.6324942 C143.843932,40.6669744 143.943145,40.6838135 144.047601,40.6838135 L144.090755,40.6838135 L144.090755,41.2691748 L143.728587,41.2691748 C143.39707,41.2691748 143.107496,41.2571469 142.861077,41.2318881 C142.614254,41.2070303 142.397679,41.1573147 142.212158,41.084345 C142.026638,41.0105734 141.866526,40.9095385 141.731015,40.7804382 C141.596311,40.651338 141.47048,40.484951 141.355135,40.2808765 L140.041569,37.8572401 L139.306747,37.8572401 L139.306747,40.0278881 C139.306747,40.1714219 139.322072,40.2868904 139.352724,40.3746946 C139.382971,40.4624988 139.424915,40.5290536 139.477345,40.5735571 C139.529371,40.6180606 139.589867,40.6481305 139.658026,40.6621632 C139.726588,40.6765967 139.798779,40.6838135 139.874197,40.6838135 L140.350098,40.6838135 L140.350098,41.2691748 L136.527973,41.2691748 L136.527973,40.6838135 Z" id="Fill-29" fill="#FEFEFE"></path>
                    <g id="Group-33" transform="translate(151.239503, 32.957445)">
                        <mask id="mask-2" fill="white">
                            <use xlink:href="#path-1"></use>
                        </mask>
                        <g id="Clip-32"></g>
                        <path d="M2.25262166,4.37268904 C2.25262166,4.89951422 2.28690261,5.36900606 2.35506121,5.78076364 C2.42362312,6.19292214 2.53372548,6.54093147 2.68496498,6.82599441 C2.83620449,7.11105734 3.03221088,7.3283627 3.27137095,7.47911329 C3.51133763,7.62946294 3.80212078,7.70483823 4.14452702,7.70483823 C4.490563,7.70483823 4.78336268,7.62946294 5.02292605,7.47911329 C5.26289273,7.3283627 5.45607599,7.11105734 5.60408905,6.82599441 C5.7516988,6.54093147 5.85857472,6.19292214 5.92552341,5.78076364 C5.99206879,5.36900606 6.02554313,4.89951422 6.02554313,4.37268904 C6.02554313,3.84666573 5.99206879,3.37717389 5.92552341,2.96461445 C5.85857472,2.55285688 5.7516988,2.20444662 5.60408905,1.91978462 C5.45607599,1.63512261 5.26369934,1.41821818 5.02574919,1.26947226 C4.78779904,1.12112727 4.49741919,1.04655385 4.15541626,1.04655385 C3.80938028,1.04655385 3.51577399,1.12112727 3.27419409,1.26947226 C3.03301749,1.41821818 2.83620449,1.63512261 2.68496498,1.91978462 C2.53372548,2.20444662 2.42362312,2.55285688 2.35506121,2.96461445 C2.28690261,3.37717389 2.25262166,3.84666573 2.25262166,4.37268904 M7.88518406,4.37268904 C7.88518406,4.9784979 7.80331308,5.53018089 7.6391678,6.02813893 C7.47502253,6.52609697 7.23424924,6.95268904 6.91523472,7.30671235 C6.59622019,7.66153753 6.20501401,7.93577529 5.74201948,8.12902471 C5.27862164,8.32267506 4.74625859,8.4197007 4.14452702,8.4197007 C3.51416077,8.4197007 2.96364897,8.32267506 2.49339495,8.12902471 C2.02314092,7.93577529 1.63274135,7.66153753 1.32300284,7.30671235 C1.01326434,6.95268904 0.780557159,6.5252951 0.625687908,6.02573333 C0.470818656,5.52577063 0.392980725,4.97128112 0.392980725,4.36266573 C0.392980725,3.75324848 0.470818656,3.2003627 0.625687908,2.70440932 C0.780557159,2.20845594 1.01407095,1.7846704 1.32582598,1.43345361 C1.63758101,1.08223683 2.02798058,0.811206527 2.49863792,0.619560839 C2.96889194,0.427514219 3.52101696,0.332092308 4.15541626,0.332092308 C4.75351808,0.332092308 5.28426791,0.427514219 5.74766575,0.619560839 C6.21025698,0.811206527 6.60025324,1.08343963 6.91765455,1.43626014 C7.23505585,1.78948159 7.47502253,2.21366807 7.6391678,2.70962145 C7.80331308,3.20597576 7.88518406,3.76046527 7.88518406,4.37268904" id="Fill-31" fill="#FEFEFE" mask="url(#mask-2)"></path>
                    </g>
                    <g id="Group-36" transform="translate(167.371717, 32.957445)">
                        <mask id="mask-4" fill="white">
                            <use xlink:href="#path-3"></use>
                        </mask>
                        <g id="Clip-35"></g>
                        <path d="M2.03052141,4.37268904 C2.03052141,4.89951422 2.06480236,5.36900606 2.13296096,5.78076364 C2.20152287,6.19292214 2.31162523,6.54093147 2.46286473,6.82599441 C2.61410424,7.11105734 2.81011063,7.3283627 3.0492707,7.47911329 C3.28923738,7.62946294 3.58002053,7.70483823 3.92242676,7.70483823 C4.26846275,7.70483823 4.56126243,7.62946294 4.8008258,7.47911329 C5.04079248,7.3283627 5.23397574,7.11105734 5.3819888,6.82599441 C5.52959855,6.54093147 5.63647447,6.19292214 5.70342315,5.78076364 C5.76996854,5.36900606 5.80344288,4.89951422 5.80344288,4.37268904 C5.80344288,3.84666573 5.76996854,3.37717389 5.70342315,2.96461445 C5.63647447,2.55285688 5.52959855,2.20444662 5.3819888,1.91978462 C5.23397574,1.63512261 5.04159909,1.41821818 4.80364894,1.26947226 C4.56569878,1.12112727 4.27531894,1.04655385 3.93331601,1.04655385 C3.58728003,1.04655385 3.29327043,1.12112727 3.05209384,1.26947226 C2.81091724,1.41821818 2.61410424,1.63512261 2.46286473,1.91978462 C2.31162523,2.20444662 2.20152287,2.55285688 2.13296096,2.96461445 C2.06480236,3.37717389 2.03052141,3.84666573 2.03052141,4.37268904 M7.66308381,4.37268904 C7.66308381,4.9784979 7.58121283,5.53018089 7.41706755,6.02813893 C7.25292228,6.52609697 7.01214899,6.95268904 6.69313446,7.30671235 C6.37411994,7.66153753 5.98291376,7.93577529 5.51991922,8.12902471 C5.05652139,8.32267506 4.52415833,8.4197007 3.92242676,8.4197007 C3.29206051,8.4197007 2.74154872,8.32267506 2.27129469,8.12902471 C1.80104067,7.93577529 1.41064109,7.66153753 1.10090259,7.30671235 C0.791164089,6.95268904 0.558456907,6.5252951 0.403587656,6.02573333 C0.248718404,5.52577063 0.170880473,4.97128112 0.170880473,4.36266573 C0.170880473,3.75324848 0.248718404,3.2003627 0.403587656,2.70440932 C0.558456907,2.20845594 0.7919707,1.7846704 1.10372573,1.43345361 C1.41548076,1.08223683 1.80588033,0.811206527 2.27653766,0.619560839 C2.74679169,0.427514219 3.29891671,0.332092308 3.93331601,0.332092308 C4.53141783,0.332092308 5.06216766,0.427514219 5.52516219,0.619560839 C5.98815673,0.811206527 6.37815299,1.08343963 6.6955543,1.43626014 C7.0129556,1.78948159 7.25292228,2.21366807 7.41706755,2.70962145 C7.58121283,3.20597576 7.66308381,3.76046527 7.66308381,4.37268904" id="Fill-34" fill="#FEFEFE" mask="url(#mask-4)"></path>
                    </g>
                    <path d="M188.565937,35.4390163 L188.511894,34.906979 C188.476,34.616704 188.386869,34.4070163 188.244503,34.2779161 C188.102136,34.1488159 187.917422,34.0846667 187.689958,34.0846667 L185.92832,34.0846667 L185.92832,37.0884522 L188.555451,37.0884522 L188.555451,37.7387646 L185.92832,37.7387646 L185.92832,39.9691515 C185.92832,40.126317 185.943242,40.2518089 185.974297,40.3448252 C186.004545,40.4382424 186.044875,40.5100093 186.095692,40.5601259 C186.146105,40.6102424 186.207004,40.6431189 186.279599,40.6595571 C186.351791,40.6755944 186.427209,40.6836131 186.50666,40.6836131 L187.193086,40.6836131 L187.193086,41.2693753 L183.149546,41.2693753 L183.149546,40.6836131 L183.614557,40.6836131 C183.694008,40.6836131 183.767813,40.6763963 183.835972,40.6619627 C183.904534,40.6479301 183.96503,40.6182611 184.017056,40.5737576 C184.069889,40.5288531 184.11022,40.4622984 184.138451,40.3748951 C184.167892,40.2870909 184.182008,40.1716224 184.182008,40.0276876 L184.182008,34.6648159 C184.182008,34.5180746 184.167892,34.4006014 184.138451,34.3127972 C184.11022,34.2253939 184.069889,34.1580373 184.017056,34.1115291 C183.96503,34.06462 183.904534,34.0333473 183.835972,34.01731 C183.767813,34.0012727 183.694008,33.9932541 183.614557,33.9932541 L183.149546,33.9932541 L183.149546,33.412704 L189.28503,33.412704 L189.339477,35.4390163 L188.565937,35.4390163 Z" id="Fill-37" fill="#FEFEFE"></path>
                    <path d="M197.221636,41.2693352 L197.221636,40.683573 L197.686647,40.683573 C197.769325,40.683573 197.845549,40.6755543 197.913708,40.659517 C197.98227,40.6430788 198.041556,40.6102023 198.091969,40.5600858 C198.142382,40.5099692 198.182309,40.4382023 198.210944,40.3447851 C198.239579,40.2517688 198.254501,40.1262769 198.254501,39.9691114 L198.254501,34.7128876 C198.254501,34.5557221 198.239579,34.4302303 198.210944,34.337214 C198.182309,34.2441977 198.142382,34.1728317 198.091969,34.1219133 C198.041556,34.0717967 197.98227,34.0389203 197.913708,34.022883 C197.845549,34.0068457 197.769325,33.9984261 197.686647,33.9984261 L197.221636,33.9984261 L197.221636,33.4126639 L201.044164,33.4126639 L201.044164,33.9984261 L200.578346,33.9984261 C200.499702,33.9984261 200.424284,34.0068457 200.354915,34.022883 C200.284337,34.0389203 200.223438,34.0717967 200.173024,34.1219133 C200.122611,34.1728317 200.083087,34.2441977 200.054049,34.337214 C200.025415,34.4302303 200.011299,34.5557221 200.011299,34.7128876 L200.011299,39.9691114 C200.011299,40.1262769 200.025415,40.2517688 200.054049,40.3447851 C200.083087,40.4382023 200.122611,40.5099692 200.173024,40.5600858 C200.223438,40.6102023 200.284337,40.6430788 200.354915,40.659517 C200.424284,40.6755543 200.499702,40.683573 200.578346,40.683573 L201.044164,40.683573 L201.044164,41.2693352 L197.221636,41.2693352 Z" id="Fill-39" fill="#FEFEFE"></path>
                    <path d="M215.034423,41.2693352 L210.715023,35.2076382 L210.715023,39.9691114 C210.715023,40.1262769 210.730348,40.2517688 210.760999,40.3447851 C210.791247,40.4382023 210.831981,40.5099692 210.882798,40.5600858 C210.933211,40.6102023 210.993303,40.6430788 211.063478,40.659517 C211.134057,40.6755543 211.207055,40.683573 211.282473,40.683573 L211.747484,40.683573 L211.747484,41.2693352 L208.855785,41.2693352 L208.855785,40.683573 L209.320393,40.683573 C209.399844,40.683573 209.473649,40.6755543 209.542211,40.659517 C209.610369,40.6430788 209.670865,40.6102023 209.722892,40.5600858 C209.775321,40.5099692 209.816458,40.4382023 209.84469,40.3447851 C209.873324,40.2517688 209.887843,40.1262769 209.887843,39.9691114 L209.887843,34.6647758 C209.887843,34.5180345 209.872518,34.4005613 209.841867,34.3127571 C209.811619,34.2253538 209.770078,34.1579972 209.717245,34.111489 C209.665219,34.06458 209.605126,34.0333072 209.536564,34.0172699 C209.468003,34.0012326 209.396214,33.993214 209.320393,33.993214 L208.855785,33.993214 L208.855785,33.4126639 L211.314738,33.4126639 L215.223573,38.9050368 L215.223573,34.6647758 C215.223573,34.5180345 215.208247,34.4005613 215.177193,34.3127571 C215.146542,34.2253538 215.105405,34.1579972 215.052975,34.111489 C215.000949,34.06458 214.940453,34.0333072 214.872294,34.0172699 C214.803732,34.0012326 214.731541,33.993214 214.656122,33.993214 L214.190708,33.993214 L214.190708,33.4126639 L217.082811,33.4126639 L217.082811,33.993214 L216.618203,33.993214 C216.542382,33.993214 216.470593,34.0012326 216.402031,34.0172699 C216.333469,34.0333072 216.27257,34.0669855 216.220544,34.1171021 C216.168518,34.1672186 216.127784,34.2385846 216.099552,34.3316009 C216.070111,34.4250182 216.055592,34.5501091 216.055592,34.7076755 L216.055592,41.2693352 L215.034423,41.2693352 Z" id="Fill-41" fill="#FEFEFE"></path>
                    <g id="Group-45" transform="translate(225.044381, 32.957445)">
                        <mask id="mask-6" fill="white">
                            <use xlink:href="#path-5"></use>
                        </mask>
                        <g id="Clip-44"></g>
                        <path d="M4.10532574,8.41958042 C3.42051327,8.41958042 2.82321805,8.32255478 2.3134401,8.12890443 C1.80325885,7.93565501 1.37857832,7.66141725 1.04020514,7.30699301 C0.701831956,6.95256876 0.449362812,6.52597669 0.283201011,6.02801865 C0.117442516,5.53006061 0.0347649205,4.97837762 0.0347649205,4.37256876 C0.0347649205,3.77838695 0.12308879,3.23351981 0.29973653,2.73917016 C0.475980965,2.24522145 0.737322826,1.82063403 1.08376211,1.46580886 C1.4297981,1.11098368 1.8601249,0.835142191 2.37554913,0.638284382 C2.89057005,0.441025641 3.48746195,0.34239627 4.16461162,0.34239627 C4.62639624,0.34239627 5.02889497,0.376074592 5.37291443,0.442228438 C5.71693388,0.508382284 6.00570051,0.598592075 6.23760108,0.713258741 C6.47030826,0.827925408 6.64453617,0.963039627 6.75947819,1.11900233 C6.87482352,1.27496503 6.93249618,1.44255478 6.93249618,1.62177156 C6.93249618,1.75006993 6.90224828,1.87155245 6.84054257,1.98421445 C6.77924015,2.09687646 6.68728654,2.19670862 6.56508502,2.28250816 C6.44248019,2.36830769 6.29285391,2.4352634 6.11580287,2.48377622 C5.93996174,2.53228904 5.73427601,2.55674592 5.49995561,2.55674592 C5.49995561,2.33422844 5.47333746,2.13015385 5.41889124,1.94412121 C5.36484832,1.75808858 5.28096081,1.59811655 5.16763201,1.46580886 C5.0538999,1.33310023 4.9107265,1.23006061 4.73770851,1.15668998 C4.56509383,1.08331935 4.36102132,1.04643357 4.12710423,1.04643357 C3.72339558,1.04643357 3.38018273,1.1198042 3.09706238,1.26694639 C2.81394203,1.41368765 2.58405799,1.62898834 2.40499042,1.91164569 C2.22713276,2.1951049 2.09726844,2.54311422 2.01580076,2.95687646 C1.93473639,3.37063869 1.89480916,3.84253613 1.89480916,4.37256876 C1.89480916,4.90300233 1.93675291,5.37329604 2.02144704,5.78385082 C2.10614116,6.19360373 2.24326497,6.53880653 2.43281848,6.81825641 C2.62116208,7.09730536 2.86677503,7.30979953 3.16764082,7.45493706 C3.4681033,7.59967366 3.83672438,7.67264336 4.27269745,7.67264336 C4.40982127,7.67264336 4.54694509,7.6670303 4.6836656,7.65620513 C4.82078941,7.64537995 4.95388018,7.6261352 5.0837445,7.59726807 L5.0837445,5.97950583 C5.0837445,5.68602331 5.01719912,5.48154779 4.88410835,5.36728205 C4.75061428,5.25261538 4.55380128,5.19488112 4.29487925,5.19488112 L4.1480761,5.19488112 L4.1480761,4.61473193 L7.62981112,4.61473193 L7.62981112,5.19488112 L7.48421789,5.19488112 C7.37250231,5.19488112 7.27490242,5.20851282 7.19182152,5.23577622 C7.10914392,5.26223776 7.04058202,5.30794406 6.9865391,5.37249417 C6.93249618,5.43704429 6.89297226,5.52204196 6.86756402,5.62788811 C6.84255909,5.73373427 6.82965332,5.86524009 6.82965332,6.02240559 L6.82965332,7.82820513 C6.39731,8.02546387 5.96133692,8.17300699 5.5217341,8.27163636 C5.08213128,8.37026573 4.60986072,8.41958042 4.10532574,8.41958042" id="Fill-43" fill="#FEFEFE" mask="url(#mask-6)"></path>
                    </g>
                    <polygon id="Fill-46" fill="#FEFEFE" points="19.2381488 20.947876 8.06610683e-05 1.82219767 8.06610683e-05 40.0727524"></polygon>
                    <polygon id="Fill-48" fill="#D0E3F2" points="1.31154897 0.518926807 20.5488105 19.6446051 39.7880885 0.518926807"></polygon>
                    <polygon id="Fill-50" fill="#FEFEFE" points="21.8601981 20.947876 41.0990729 40.0735543 41.0990729 1.82219767"></polygon>
                    <polygon id="Fill-52" fill="#D0E3F2" points="20.5486895 22.2509063 1.31142798 41.3769855 39.7883708 41.3769855"></polygon>
                </g>
            </g>
        </g>
    </g>
</svg>