<?xml version="1.0" encoding="UTF-8"?>
<svg width="214px" height="38px" viewBox="0 0 214 38" version="1.1" xmlns="http://www.w3.org/2000/svg" xmlns:xlink="http://www.w3.org/1999/xlink">
    <!-- Generator: Sketch 41.2 (35397) - http://www.bohemiancoding.com/sketch -->
    <title>Page 1</title>
    <desc>Created with Sketch.</desc>
    <defs>
        <polygon id="path-1" points="0.361072034 7.63636364 7.24493408 7.63636364 7.24493408 0.3012 0.361072034 0.3012 0.361072034 7.63636364"></polygon>
        <polygon id="path-3" points="0.157005563 7.63636364 7.0408676 7.63636364 7.0408676 0.3012 0.157005563 0.3012 0.157005563 7.63636364"></polygon>
        <polygon id="path-5" points="3.52108228 7.63636364 7.01022243 7.63636364 7.01022243 0.310545455 0.0319421278 0.310545455 0.0319421278 7.63636364 3.52108228 7.63636364"></polygon>
    </defs>
    <g id="Welcome" stroke="none" stroke-width="1" fill="none" fill-rule="evenodd">
        <g id="Inner-page" transform="translate(-183.000000, -58.000000)">
            <g id="Page-1" transform="translate(183.000000, 58.000000)">
                <path d="M58.7872258,20.4802545 L65.7881843,20.4802545 C66.1409558,20.4802545 66.4429608,20.4224364 66.6930877,20.3068 C66.9435851,20.1915273 67.1599912,20.0278909 67.3419353,19.8166182 C67.52425,19.6057091 67.6691383,19.3566182 67.7777119,19.0700727 C67.8855444,18.7835273 67.9681789,18.4697091 68.0252449,18.1275273 L68.2983464,16.6798909 L70.7229095,16.6798909 L70.4672243,22.3653455 L49.9760899,22.3653455 L49.9760899,20.7217091 L51.4446125,20.7217091 C51.69511,20.7217091 51.9285617,20.7013455 52.1449678,20.6613455 C52.3610033,20.6213455 52.5518408,20.5380727 52.7167393,20.4122545 C52.8816377,20.2868 53.0098509,20.1009818 53.1010083,19.8544364 C53.1921656,19.6082545 53.2377443,19.2838909 53.2377443,18.8817091 L53.2377443,3.95152727 C53.2377443,3.50934545 53.1921656,3.15734545 53.1010083,2.89589091 C53.0098509,2.63443636 52.8846022,2.43334545 52.7252621,2.29261818 C52.565922,2.15189091 52.378049,2.0588 52.1620135,2.01334545 C51.9456074,1.96825455 51.7065973,1.94570909 51.4446125,1.94570909 L49.9760899,1.94570909 L49.9760899,0.316981818 L69.3911229,0.316981818 L69.5278589,6.00243636 L67.0862501,6.00243636 L66.9154227,4.53952727 C66.8238948,3.78534545 66.6078593,3.20752727 66.2665751,2.80534545 C65.9249203,2.40316364 65.3953924,2.20207273 64.6783621,2.20207273 L58.7872258,2.20207273 L58.7872258,9.92352727 L67.0862501,9.92352727 L67.0862501,11.7784364 L58.7872258,11.7784364 L58.7872258,20.4802545 Z" id="Fill-1" fill="#2E385E"></path>
                <path d="M77.0855442,17.7655636 C77.0855442,18.6506545 77.2448843,19.3139273 77.563935,19.7564727 C77.8822446,20.1986545 78.3832395,20.4197455 79.066549,20.4197455 C79.5671733,20.4197455 80.019625,20.3270182 80.4239042,20.1408364 C80.8278127,19.9550182 81.1753965,19.6910182 81.4655436,19.3492 C81.7556908,19.0073818 81.9776552,18.5928364 82.1314369,18.1048364 C82.2852186,17.6175636 82.3619242,17.0717455 82.3619242,16.4688364 L82.3619242,14.1462909 L80.7911275,14.2364727 C80.0963306,14.2666545 79.5101073,14.3648364 79.0320871,14.5306545 C78.5540669,14.6968364 78.1727623,14.9252 77.8881735,15.2168364 C77.6032142,15.5084727 77.398666,15.8652 77.2734173,16.2877455 C77.147798,16.7099273 77.0855442,17.2026545 77.0855442,17.7655636 M80.1934169,7.29938182 C79.749488,7.29938182 79.3763358,7.38229091 79.0750719,7.54810909 C78.7730668,7.71392727 78.5310922,7.94556364 78.3491481,8.24192727 C78.1668334,8.53865455 78.0389908,8.89029091 77.9648791,9.29756364 C77.8907674,9.70483636 77.8540822,10.1499273 77.8540822,10.6324727 C76.2829149,10.6324727 75.1019455,10.4764727 74.3108035,10.1648364 C73.5192909,9.8532 73.1242757,9.32010909 73.1242757,8.56629091 C73.1242757,8.00338182 73.3143721,7.52083636 73.6960472,7.11829091 C74.0773517,6.71647273 74.5950217,6.38956364 75.2497983,6.13792727 C75.9042043,5.88701818 76.6671839,5.70338182 77.5379959,5.58774545 C78.408808,5.47210909 79.3396505,5.41429091 80.3297824,5.41429091 C81.5592949,5.41429091 82.6320612,5.50738182 83.5488225,5.6932 C84.4648427,5.87938182 85.2278223,6.17829091 85.8370202,6.59065455 C86.4458475,7.00301818 86.9042282,7.54338182 87.211421,8.21174545 C87.5189845,8.88047273 87.6723956,9.6972 87.6723956,10.6622909 L87.6723956,18.5346545 C87.6723956,18.9568364 87.7090809,19.3092 87.7835631,19.5906545 C87.8573042,19.8721091 87.9740301,20.0957455 88.1333702,20.2615636 C88.2927102,20.4273818 88.5091163,20.5459273 88.7822178,20.6157455 C89.0556898,20.6862909 89.3854868,20.7215636 89.7727202,20.7215636 L89.9094562,20.7215636 L89.9094562,22.3652 L83.4035637,22.3652 L82.6691171,20.2390182 L82.3619242,20.2390182 C81.9746908,20.6513818 81.6104319,21.0106545 81.2691477,21.3172 C80.9274929,21.6241091 80.5632341,21.8779273 80.1763712,22.0786545 C79.7891378,22.2801091 79.3537317,22.4281091 78.8697825,22.5237455 C78.3858334,22.6190182 77.8140619,22.6670182 77.1540975,22.6670182 C76.3796306,22.6670182 75.6596358,22.5662909 74.9937424,22.3652 C74.3278491,22.1644727 73.7471842,21.8553818 73.2521183,21.4379273 C72.7566818,21.0208364 72.3668545,20.4979273 72.0826362,19.8695636 C71.7976769,19.2412 71.6553825,18.4997455 71.6553825,17.6448364 C71.6553825,15.9659273 72.306824,14.7244727 73.6108188,13.9201091 C74.9140724,13.1157455 76.8746965,12.6782909 79.4934322,12.6077455 L82.3619242,12.5175636 L82.3619242,10.8132 C82.3619242,10.3004727 82.3389496,9.82810909 82.2937415,9.39574545 C82.2481628,8.96338182 82.1510765,8.59138182 82.0032238,8.27974545 C81.855371,7.96810909 81.636371,7.72701818 81.3458533,7.55574545 C81.0557061,7.38483636 80.6714371,7.29938182 80.1934169,7.29938182" id="Fill-3" fill="#2E385E"></path>
                <path d="M97.364571,22.6672 C96.1009671,22.6672 95.0222718,22.5762909 94.1288557,22.3955636 C93.2346984,22.2144727 92.5065513,21.9632 91.9429321,21.6413818 C91.3796834,21.3199273 90.9698459,20.9377455 90.7134196,20.4952 C90.4573638,20.0530182 90.3295211,19.5755636 90.3295211,19.0624727 C90.3295211,18.5599273 90.4403181,18.1552 90.6622825,17.8486545 C90.884247,17.5421091 91.1632774,17.3035636 91.4990032,17.1322909 C91.8347291,16.9613818 92.1908356,16.8482909 92.5662112,16.7930182 C92.9419574,16.7377455 93.2832416,16.7101091 93.590805,16.7101091 C93.590805,17.3533818 93.6819623,17.9315636 93.8639065,18.4442909 C94.0458506,18.9570182 94.3019064,19.3919273 94.6324444,19.7490182 C94.9626119,20.1057455 95.3579976,20.3799273 95.8193428,20.5708364 C96.2803173,20.7617455 96.7950228,20.8570182 97.364571,20.8570182 C97.9678399,20.8570182 98.4884744,20.8021091 98.9268449,20.6912 C99.3648448,20.5810182 99.7235453,20.4275636 100.002946,20.2315636 C100.281606,20.0352 100.489489,19.8090182 100.625855,19.5526545 C100.762591,19.2962909 100.830774,19.0275636 100.830774,18.7457455 C100.830774,18.4042909 100.759626,18.0999273 100.617332,17.8337455 C100.475038,17.5672 100.238992,17.3159273 99.9088245,17.0795636 C99.578657,16.8432 99.137322,16.6119273 98.5855607,16.3857455 C98.0330582,16.1595636 97.3475253,15.9206545 96.5278503,15.6693818 C95.582556,15.3781091 94.7487998,15.0686545 94.026211,14.7421091 C93.3032517,14.4152 92.6944244,14.0432 92.1993585,13.6257455 C91.703922,13.2086545 91.3281758,12.7312 91.07212,12.1930182 C90.8160642,11.6555636 90.687851,11.0395636 90.687851,10.3457455 C90.687851,9.52138182 90.8672013,8.80247273 91.2259017,8.18938182 C91.5842316,7.57629091 92.0937493,7.06574545 92.7540843,6.65847273 C93.4140487,6.2512 94.2055612,5.9472 95.1275104,5.74610909 C96.04983,5.54501818 97.0740533,5.44429091 98.2012917,5.44429091 C99.3051849,5.44429091 100.24455,5.52756364 101.018647,5.69338182 C101.792743,5.8592 102.424545,6.07774545 102.914052,6.34938182 C103.40356,6.62065455 103.76189,6.92756364 103.989783,7.26938182 C104.217677,7.6112 104.331438,7.95810909 104.331438,8.30974545 C104.331438,9.00356364 104.055372,9.5312 103.50324,9.89338182 C102.951108,10.2552 102.037311,10.4362909 100.762591,10.4362909 C100.762591,9.41083636 100.503571,8.61410909 99.98553,8.04610909 C99.4674895,7.47810909 98.701916,7.19374545 97.6888095,7.19374545 C97.3134339,7.19374545 96.951769,7.23410909 96.6045559,7.31447273 C96.2573427,7.39483636 95.9557082,7.51556364 95.6996524,7.67629091 C95.4435966,7.83738182 95.2386779,8.03592727 95.0848962,8.27229091 C94.931485,8.50829091 94.8544089,8.78756364 94.8544089,9.10901818 C94.8544089,9.44101818 94.9251855,9.73738182 95.0678505,9.99883636 C95.2101449,10.2602909 95.4606423,10.5093818 95.8193428,10.7453818 C96.1776727,10.9817455 96.6642157,11.2202909 97.2793426,11.4617455 C97.8937283,11.7032 98.6793119,11.9697455 99.6353524,12.2610182 C100.409449,12.5024727 101.123885,12.7762909 101.778662,13.0832 C102.433068,13.3897455 102.996687,13.7417455 103.469149,14.1384727 C103.94124,14.5359273 104.308463,14.9882909 104.570448,15.4959273 C104.832062,16.0035636 104.96324,16.5842909 104.96324,17.2377455 C104.96324,18.0922909 104.795007,18.8566545 104.459281,19.5301091 C104.123555,20.2039273 103.631453,20.7719273 102.982606,21.2344727 C102.333758,21.6970182 101.536687,22.0512 100.591763,22.2973818 C99.6468397,22.5439273 98.5711089,22.6672 97.364571,22.6672" id="Fill-5" fill="#2E385E"></path>
                <path d="M115.577476,20.1785818 C116.032892,20.1785818 116.467927,20.1509455 116.883694,20.0956727 C117.29909,20.0407636 117.688917,19.9727636 118.053917,19.8920364 L118.053917,21.8978545 C117.871232,21.9785818 117.623699,22.0636727 117.310577,22.1542182 C116.997455,22.2447636 116.633196,22.3276727 116.2178,22.4029455 C115.802034,22.4785818 115.332537,22.5411273 114.809308,22.5916727 C114.285339,22.6414909 113.716532,22.6673091 113.101405,22.6673091 C112.315821,22.6673091 111.604349,22.5840364 110.966989,22.4182182 C110.329258,22.2524 109.788984,21.9756727 109.345055,21.5887636 C108.900756,21.2018545 108.559842,20.6989455 108.320091,20.0804 C108.081451,19.4622182 107.961761,18.7007636 107.961761,17.7956727 L107.961761,7.91785455 L105.332279,7.91785455 L105.332279,6.33421818 C106.083401,6.33421818 106.754852,6.20367273 107.347005,5.94221818 C107.938786,5.68076364 108.411248,5.37930909 108.76439,5.03712727 C109.481791,4.37385455 110.016507,3.35312727 110.369278,1.97567273 L113.272232,1.97567273 L113.272232,5.80658182 L117.746354,5.80658182 L117.746354,7.91785455 L113.272232,7.91785455 L113.272232,17.4793091 C113.272232,18.4142182 113.451583,19.0978545 113.810283,19.5302182 C114.168613,19.9625818 114.757801,20.1785818 115.577476,20.1785818" id="Fill-7" fill="#2E385E"></path>
                <path d="M139.196567,20.2087636 C140.050704,20.2087636 140.810349,20.1207636 141.476242,19.9447636 C142.142135,19.7691273 142.737252,19.5404 143.26048,19.2585818 C143.78445,18.9774909 144.24246,18.6607636 144.635622,18.3084 C145.027673,17.9567636 145.372292,17.6098545 145.668368,17.2680364 C145.849942,17.3887636 145.995571,17.5745818 146.104145,17.8258545 C146.211977,18.0774909 146.266079,18.3338545 146.266079,18.5953091 C146.266079,19.0273091 146.135272,19.4825818 145.873287,19.9600364 C145.611302,20.4374909 145.173302,20.8774909 144.558175,21.2796727 C143.94379,21.6818545 143.129303,22.0134909 142.116937,22.2749455 C141.10309,22.5360364 139.850973,22.6673091 138.359846,22.6673091 C136.333263,22.6673091 134.563106,22.3956727 133.049004,21.8527636 C131.534903,21.3094909 130.277228,20.5407636 129.275609,19.5451273 C128.273619,18.5498545 127.522497,17.3534909 127.021873,15.9560364 C126.520508,14.5585818 126.270381,13.0102182 126.270381,11.3109455 C126.270381,9.64221818 126.526807,8.11385455 127.038919,6.72621818 C127.55066,5.33894545 128.310675,4.14767273 129.318223,3.15203636 C130.325771,2.15676364 131.583446,1.38294545 133.091619,0.829854545 C134.600162,0.276763636 136.345121,3.63636364e-05 138.325755,3.63636364e-05 C139.669029,3.63636364e-05 140.838882,0.0934909091 141.834572,0.279309091 C142.830633,0.465490909 143.659201,0.718945455 144.319165,1.04076364 C144.97913,1.36258182 145.474196,1.74221818 145.805104,2.17930909 C146.135272,2.61676364 146.30017,3.08694545 146.30017,3.58949091 C146.30017,3.97167273 146.206048,4.32621818 146.018546,4.65276364 C145.830302,4.97967273 145.550901,5.26330909 145.181825,5.50476364 C144.811267,5.74621818 144.353257,5.93458182 143.806683,6.07021818 C143.26048,6.20621818 142.634237,6.27385455 141.928694,6.27385455 C141.928694,5.76112727 141.865699,5.25094545 141.74045,4.74330909 C141.615201,4.23567273 141.40176,3.77567273 141.100866,3.36330909 C140.798861,2.95130909 140.403105,2.61676364 139.913968,2.3604 C139.423719,2.10403636 138.815263,1.97567273 138.086374,1.97567273 C136.982481,1.97567273 136.049045,2.18185455 135.286065,2.59421818 C134.523456,3.00658182 133.911664,3.60985455 133.45069,4.40403636 C132.989715,5.19821818 132.656954,6.17603636 132.452035,7.33712727 C132.247116,8.49821818 132.144471,9.82294545 132.144471,11.3109455 C132.144471,12.7989455 132.26972,14.1011273 132.519847,15.2167636 C132.770345,16.3327636 133.174253,17.2604 133.732314,17.9993091 C134.290375,18.7385818 135.015557,19.2916727 135.909344,19.6582182 C136.803131,20.0254909 137.898872,20.2087636 139.196567,20.2087636" id="Fill-9" fill="#2E385E"></path>
                <path d="M153.020875,14.0255273 C153.020875,15.1215273 153.086464,16.0866182 153.217271,16.9211636 C153.348078,17.7557091 153.558926,18.4546182 153.849073,19.0175273 C154.139591,19.5804364 154.517931,20.0051636 154.984834,20.2917091 C155.451367,20.5782545 156.020545,20.7215273 156.692367,20.7215273 C157.363819,20.7215273 157.930403,20.5782545 158.391377,20.2917091 C158.852352,20.0051636 159.228098,19.5804364 159.518245,19.0175273 C159.808392,18.4546182 160.016275,17.7557091 160.141524,16.9211636 C160.266773,16.0866182 160.329397,15.1215273 160.329397,14.0255273 C160.329397,12.9197091 160.263808,11.9517091 160.133001,11.1226182 C160.002194,10.2928 159.791347,9.60189091 159.501199,9.0488 C159.211052,8.49607273 158.832342,8.08116364 158.365809,7.8048 C157.898905,7.52807273 157.329728,7.38989091 156.657905,7.38989091 C155.986454,7.38989091 155.417276,7.52807273 154.950373,7.8048 C154.483469,8.08116364 154.108093,8.49607273 153.823505,9.0488 C153.538545,9.60189091 153.333997,10.2928 153.208748,11.1226182 C153.0835,11.9517091 153.020875,12.9197091 153.020875,14.0255273 M165.742513,14.0255273 C165.742513,16.9313455 164.971011,19.0978909 163.428747,20.5255273 C161.886113,21.9531636 159.617925,22.6673455 156.624185,22.6673455 C155.223474,22.6673455 153.965799,22.4884364 152.850048,22.1317091 C151.734297,21.7749818 150.786779,21.2393455 150.007124,20.5255273 C149.22747,19.8117091 148.629389,18.9120727 148.213993,17.8258909 C147.798597,16.7400727 147.591084,15.4731636 147.591084,14.0255273 C147.591084,11.1200727 148.362216,8.95825455 149.90485,7.5408 C151.447114,6.12334545 153.721231,5.41425455 156.726459,5.41425455 C158.126428,5.41425455 159.381509,5.59025455 160.491702,5.94225455 C161.601524,6.29425455 162.546448,6.82698182 163.326473,7.5408 C164.105757,8.25461818 164.703468,9.15207273 165.118864,10.2328 C165.53463,11.3135273 165.742513,12.5778909 165.742513,14.0255273" id="Fill-11" fill="#2E385E"></path>
                <path d="M172.634416,17.7655636 C172.634416,18.6506545 172.793757,19.3139273 173.112437,19.7564727 C173.430746,20.1986545 173.932112,20.4197455 174.615051,20.4197455 C175.115675,20.4197455 175.568497,20.3270182 175.972776,20.1408364 C176.376685,19.9550182 176.723898,19.6910182 177.014045,19.3492 C177.304563,19.0073818 177.526527,18.5928364 177.679939,18.1048364 C177.83372,17.6175636 177.910426,17.0717455 177.910426,16.4688364 L177.910426,14.1462909 L176.339629,14.2364727 C175.645203,14.2666545 175.05898,14.3648364 174.580959,14.5306545 C174.102939,14.6968364 173.721264,14.9252 173.436675,15.2168364 C173.152086,15.5084727 172.947168,15.8652 172.82229,16.2877455 C172.69667,16.7099273 172.634416,17.2026545 172.634416,17.7655636 M175.742289,7.29938182 C175.29799,7.29938182 174.925208,7.38229091 174.623574,7.54810909 C174.321939,7.71392727 174.079594,7.94556364 173.89765,8.24192727 C173.715706,8.53865455 173.587492,8.89029091 173.513751,9.29756364 C173.43964,9.70483636 173.402584,10.1499273 173.402584,10.6324727 C171.831787,10.6324727 170.650447,10.4764727 169.859676,10.1648364 C169.068163,9.8532 168.672777,9.32010909 168.672777,8.56629091 C168.672777,8.00338182 168.863244,7.52083636 169.244919,7.11829091 C169.626224,6.71647273 170.143894,6.38956364 170.79867,6.13792727 C171.453076,5.88701818 172.216056,5.70338182 173.086868,5.58774545 C173.95768,5.47210909 174.888152,5.41429091 175.878655,5.41429091 C177.108167,5.41429091 178.180933,5.50738182 179.097324,5.6932 C180.013715,5.87938182 180.776695,6.17829091 181.385522,6.59065455 C181.994349,7.00301818 182.45273,7.54338182 182.759923,8.21174545 C183.067486,8.88047273 183.220897,9.6972 183.220897,10.6622909 L183.220897,18.5346545 C183.220897,18.9568364 183.257953,19.3092 183.332065,19.5906545 C183.405806,19.8721091 183.522902,20.0957455 183.682242,20.2615636 C183.841582,20.4273818 184.057989,20.5459273 184.33109,20.6157455 C184.604562,20.6862909 184.934359,20.7215636 185.321222,20.7215636 L185.457958,20.7215636 L185.457958,22.3652 L178.952436,22.3652 L178.217989,20.2390182 L177.910426,20.2390182 C177.523563,20.6513818 177.159304,21.0106545 176.817649,21.3172 C176.476365,21.6241091 176.112106,21.8779273 175.724873,22.0786545 C175.33801,22.2801091 174.902233,22.4281091 174.418655,22.5237455 C173.934706,22.6190182 173.362564,22.6670182 172.702599,22.6670182 C171.928503,22.6670182 171.208508,22.5662909 170.542244,22.3652 C169.876721,22.1644727 169.296056,21.8553818 168.80062,21.4379273 C168.305554,21.0208364 167.915727,20.4979273 167.631138,19.8695636 C167.346179,19.2412 167.204255,18.4997455 167.204255,17.6448364 C167.204255,15.9659273 167.855696,14.7244727 169.15932,13.9201091 C170.462945,13.1157455 172.423569,12.6782909 175.041934,12.6077455 L177.910426,12.5175636 L177.910426,10.8132 C177.910426,10.3004727 177.887822,9.82810909 177.842614,9.39574545 C177.797035,8.96338182 177.699949,8.59138182 177.552096,8.27974545 C177.403873,7.96810909 177.184873,7.72701818 176.894726,7.55574545 C176.604578,7.38483636 176.220309,7.29938182 175.742289,7.29938182" id="Fill-13" fill="#2E385E"></path>
                <path d="M192.913073,22.6672 C191.649839,22.6672 190.571144,22.5762909 189.677357,22.3955636 C188.783571,22.2144727 188.055424,21.9632 187.491804,21.6413818 C186.928185,21.3199273 186.518348,20.9377455 186.262292,20.4952 C186.005865,20.0530182 185.878023,19.5755636 185.878023,19.0624727 C185.878023,18.5599273 185.98882,18.1552 186.211155,17.8486545 C186.433119,17.5421091 186.711779,17.3035636 187.047875,17.1322909 C187.383231,16.9613818 187.739337,16.8482909 188.115083,16.7930182 C188.490459,16.7377455 188.832114,16.7101091 189.139307,16.7101091 C189.139307,17.3533818 189.230464,17.9315636 189.412779,18.4442909 C189.594723,18.9570182 189.850779,19.3919273 190.180946,19.7490182 C190.511484,20.1057455 190.90687,20.3799273 191.367844,20.5708364 C191.828819,20.7617455 192.343895,20.8570182 192.913073,20.8570182 C193.516342,20.8570182 194.037347,20.8021091 194.475717,20.6912 C194.913717,20.5810182 195.272418,20.4275636 195.551448,20.2315636 C195.830108,20.0352 196.038362,19.8090182 196.174727,19.5526545 C196.311463,19.2962909 196.379275,19.0275636 196.379275,18.7457455 C196.379275,18.4042909 196.308128,18.0999273 196.165834,17.8337455 C196.02391,17.5672 195.787494,17.3159273 195.457326,17.0795636 C195.127159,16.8432 194.686194,16.6119273 194.134062,16.3857455 C193.58193,16.1595636 192.896027,15.9206545 192.076352,15.6693818 C191.131428,15.3781091 190.297672,15.0686545 189.574713,14.7421091 C188.851753,14.4152 188.242926,14.0432 187.74786,13.6257455 C187.252794,13.2086545 186.877048,12.7312 186.620992,12.1930182 C186.364566,11.6555636 186.236353,11.0395636 186.236353,10.3457455 C186.236353,9.52138182 186.416074,8.80247273 186.774774,8.18938182 C187.133104,7.57629091 187.642251,7.06574545 188.302957,6.65847273 C188.962921,6.2512 189.754433,5.9472 190.676383,5.74610909 C191.598332,5.54501818 192.622925,5.44429091 193.750164,5.44429091 C194.853687,5.44429091 195.793052,5.52756364 196.567148,5.69338182 C197.341245,5.8592 197.973047,6.07774545 198.462925,6.34938182 C198.952062,6.62065455 199.310762,6.92756364 199.538656,7.26938182 C199.766178,7.6112 199.88031,7.95810909 199.88031,8.30974545 C199.88031,9.00356364 199.604244,9.5312 199.051742,9.89338182 C198.49961,10.2552 197.585813,10.4362909 196.311463,10.4362909 C196.311463,9.41083636 196.052443,8.61410909 195.534402,8.04610909 C195.016362,7.47810909 194.250418,7.19374545 193.237682,7.19374545 C192.861936,7.19374545 192.500641,7.23410909 192.153428,7.31447273 C191.806215,7.39483636 191.50421,7.51556364 191.248525,7.67629091 C190.992098,7.83738182 190.78755,8.03592727 190.633768,8.27229091 C190.479987,8.50829091 190.403281,8.78756364 190.403281,9.10901818 C190.403281,9.44101818 190.474058,9.73738182 190.616723,9.99883636 C190.759017,10.2602909 191.009144,10.5093818 191.367844,10.7453818 C191.726545,10.9817455 192.213088,11.2202909 192.827844,11.4617455 C193.442601,11.7032 194.228184,11.9697455 195.184225,12.2610182 C195.958321,12.5024727 196.672757,12.7762909 197.327163,13.0832 C197.98194,13.3897455 198.545189,13.7417455 199.018021,14.1384727 C199.490112,14.5359273 199.856965,14.9882909 200.11895,15.4959273 C200.380935,16.0035636 200.512112,16.5842909 200.512112,17.2377455 C200.512112,18.0922909 200.343879,18.8566545 200.008153,19.5301091 C199.672057,20.2039273 199.179955,20.7719273 198.531107,21.2344727 C197.88226,21.6970182 197.085189,22.0512 196.140636,22.2973818 C195.195341,22.5439273 194.119611,22.6672 192.913073,22.6672" id="Fill-15" fill="#2E385E"></path>
                <path d="M211.126163,20.1785818 C211.581579,20.1785818 212.016614,20.1509455 212.432381,20.0956727 C212.847777,20.0407636 213.237604,19.9727636 213.602233,19.8920364 L213.602233,21.8978545 C213.419919,21.9785818 213.172015,22.0636727 212.859635,22.1542182 C212.546142,22.2447636 212.182254,22.3276727 211.766858,22.4029455 C211.350721,22.4785818 210.881224,22.5411273 210.357995,22.5916727 C209.834026,22.6414909 209.265219,22.6673091 208.650092,22.6673091 C207.864508,22.6673091 207.153036,22.5840364 206.516047,22.4182182 C205.878316,22.2524 205.337671,21.9756727 204.893742,21.5887636 C204.449443,21.2018545 204.108159,20.6989455 203.869148,20.0804 C203.630138,19.4622182 203.510448,18.7007636 203.510448,17.7956727 L203.510448,7.91785455 L200.880966,7.91785455 L200.880966,6.33421818 C201.632088,6.33421818 202.303539,6.20367273 202.895692,5.94221818 C203.487473,5.68076364 203.959935,5.37930909 204.313077,5.03712727 C205.030108,4.37385455 205.565194,3.35312727 205.917965,1.97567273 L208.820919,1.97567273 L208.820919,5.80658182 L213.295041,5.80658182 L213.295041,7.91785455 L208.820919,7.91785455 L208.820919,17.4793091 C208.820919,18.4142182 209.00027,19.0978545 209.358599,19.5302182 C209.7173,19.9625818 210.306488,20.1785818 211.126163,20.1785818" id="Fill-17" fill="#2E385E"></path>
                <path d="M52.5944921,37.528 C52.1375937,37.528 51.7570303,37.4854545 51.4520608,37.4007273 C51.1478324,37.3167273 50.9036344,37.2076364 50.719467,37.0745455 C50.5360406,36.9414545 50.4052335,36.792 50.3274162,36.6261818 C50.2492284,36.4603636 50.2106904,36.2963636 50.2106904,36.1338182 C50.2106904,35.9614545 50.2429289,35.8170909 50.3074061,35.7 C50.3718832,35.5829091 50.4582233,35.4876364 50.5656852,35.4127273 C50.6731472,35.3378182 50.795802,35.2843636 50.9332791,35.2516364 C51.0707562,35.2189091 51.2137918,35.2025455 51.3627562,35.2025455 C51.3627562,35.4890909 51.3975887,35.74 51.4672537,35.9563636 C51.5369186,36.172 51.6328932,36.3527273 51.7551775,36.4967273 C51.8778323,36.6414545 52.0242028,36.7501818 52.1946597,36.8236364 C52.365487,36.8967273 52.5515073,36.9330909 52.7534616,36.9330909 C52.9520809,36.9330909 53.1292078,36.9058182 53.2848422,36.8505455 C53.4408473,36.7949091 53.5731366,36.7189091 53.6824513,36.6214545 C53.7913955,36.5236364 53.8744005,36.4094545 53.9307254,36.2778182 C53.9870503,36.1458182 54.0148422,36.004 54.0148422,35.8512727 C54.0148422,35.6821818 53.9803802,35.532 53.9110858,35.4 C53.8410503,35.2687273 53.7361823,35.1465455 53.5957407,35.0349091 C53.454558,34.9229091 53.2778016,34.8156364 53.0639895,34.7134545 C52.8505479,34.6112727 52.6011621,34.5010909 52.3165733,34.384 C51.961949,34.2410909 51.663279,34.0941818 51.4201927,33.9432727 C51.1767359,33.7923636 50.9807106,33.6287273 50.8317461,33.4534545 C50.6824111,33.2778182 50.5756903,33.0876364 50.5112132,32.8832727 C50.4463655,32.6781818 50.4144974,32.4541818 50.4144974,32.2105455 C50.4144974,31.9050909 50.4771218,31.6287273 50.6027411,31.3818182 C50.7287309,31.1349091 50.9028933,30.9236364 51.1244872,30.748 C51.3464516,30.5727273 51.6095481,30.4378182 51.914147,30.3436364 C52.2187459,30.2494545 52.5500251,30.2021818 52.9076139,30.2021818 C53.2815072,30.2021818 53.6046341,30.2327273 53.8758828,30.2927273 C54.147502,30.3527273 54.3720604,30.4345455 54.5491873,30.5385455 C54.7259436,30.6425455 54.8578623,30.7650909 54.9438319,30.9065455 C55.030172,31.048 55.0727862,31.2 55.0727862,31.3625455 C55.0727862,31.4789091 55.0472177,31.5883636 54.9960806,31.6887273 C54.944573,31.7894545 54.8671263,31.8774545 54.7626289,31.952 C54.6581314,32.0265455 54.5273243,32.0854545 54.3702076,32.1272727 C54.2130909,32.1701818 54.030035,32.1909091 53.8214107,32.1909091 C53.8214107,32.0512727 53.8021417,31.9007273 53.7643447,31.74 C53.7261772,31.5792727 53.664294,31.4298182 53.5779539,31.2916364 C53.4919844,31.1538182 53.3800757,31.0389091 53.2429692,30.9476364 C53.105492,30.8567273 52.9391113,30.8112727 52.7434565,30.8112727 C52.6078322,30.8112727 52.4788779,30.8309091 52.3562231,30.8701818 C52.2335683,30.9090909 52.1268475,30.9676364 52.0356901,31.0454545 C51.9449033,31.1236364 51.8726445,31.22 51.8200252,31.3356364 C51.7666648,31.4509091 51.7403551,31.5832727 51.7403551,31.7323636 C51.7403551,31.8723636 51.7633298,32.004 51.8100201,32.1272727 C51.8563399,32.2509091 51.9415683,32.372 52.0657054,32.4901818 C52.1898424,32.6094545 52.3602992,32.7276364 52.5774464,32.8461818 C52.794223,32.9647273 53.0747357,33.0927273 53.4193549,33.2290909 C53.7669386,33.3687273 54.0630147,33.5116364 54.3083243,33.6578182 C54.5532634,33.8043636 54.7544766,33.9610909 54.9115933,34.128 C55.06871,34.2956364 55.1832126,34.4789091 55.2543598,34.6792727 C55.325507,34.8789091 55.3610806,35.1003636 55.3610806,35.344 C55.3610806,35.6661818 55.2966034,35.9610909 55.1672786,36.2290909 C55.0383243,36.4967273 54.8526745,36.7269091 54.6110705,36.9185455 C54.3694665,37.1105455 54.0789487,37.2596364 53.7395173,37.3672727 C53.4000859,37.4741818 53.0184108,37.528 52.5944921,37.528" id="Fill-19" fill="#496395"></path>
                <path d="M62.7624273,37.4303273 L62.7624273,36.8990545 L63.1896811,36.8990545 C63.2656455,36.8990545 63.3353105,36.8917818 63.3983054,36.8772364 C63.4613003,36.8623273 63.5157724,36.8325091 63.5620922,36.7870545 C63.608412,36.7416 63.6447267,36.6765091 63.6714069,36.5917818 C63.6977165,36.5074182 63.7114272,36.3936 63.7114272,36.2510545 L63.7114272,31.4790545 C63.7114272,31.3361455 63.6977165,31.2226909 63.6714069,31.1379636 C63.6447267,31.0536 63.608412,30.9888727 63.5620922,30.9434182 C63.5157724,30.8979636 63.4613003,30.8674182 63.3983054,30.8528727 C63.3353105,30.8383273 63.2656455,30.8310545 63.1896811,30.8310545 L62.7624273,30.8310545 L62.7624273,30.3045091 L66.2742086,30.3045091 L66.2742086,30.8310545 L65.8469548,30.8310545 C65.7772898,30.8310545 65.7102188,30.8383273 65.6457416,30.8528727 C65.5808939,30.8674182 65.5256807,30.8957818 65.479361,30.9383273 C65.4330412,30.9805091 65.3956148,31.0416 65.3674523,31.1208727 C65.3396605,31.2005091 65.3255792,31.3070545 65.3255792,31.4401455 L65.3255792,36.8212364 L67.2176501,36.8212364 C67.4562896,36.8212364 67.6415688,36.7474182 67.7738581,36.5994182 C67.906518,36.4514182 68.0024926,36.2361455 68.0621525,35.9532364 L68.2259393,35.2026909 L68.7973402,35.2026909 L68.7224874,37.4303273 L62.7624273,37.4303273 Z" id="Fill-21" fill="#496395"></path>
                <path d="M79.6901246,32.8390909 C79.6534393,32.7256364 79.6163835,32.606 79.578216,32.4812727 C79.540419,32.3561818 79.5022515,32.2281818 79.464084,32.0983636 C79.426287,31.9681818 79.3896018,31.8390909 79.3551398,31.7107273 C79.3199368,31.5827273 79.289551,31.4598182 79.2628708,31.3427273 C79.2332262,31.4434545 79.1983937,31.5543636 79.1587439,31.6743636 C79.1187236,31.7943636 79.0768505,31.918 79.032013,32.0445455 C78.987546,32.1714545 78.9427084,32.298 78.8978709,32.4249091 C78.8534039,32.5514545 78.8111602,32.6736364 78.7715105,32.7903636 L78.1700943,34.4769091 L80.226693,34.4769091 L79.6901246,32.8390909 Z M77.9566527,35.0863636 L77.6639116,35.9438182 C77.6372314,36.0252727 77.6098101,36.1201818 77.5820183,36.2289091 C77.5534853,36.3376364 77.539404,36.4329091 77.539404,36.5136364 C77.539404,36.5790909 77.5527441,36.6358182 77.5794243,36.6845455 C77.605734,36.7332727 77.6405665,36.7732727 77.6835512,36.8041818 C77.726536,36.8347273 77.7754497,36.8583636 77.8299218,36.8747273 C77.8847644,36.8910909 77.9418304,36.8990909 78.0014903,36.8990909 L78.428744,36.8990909 L78.428744,37.4303636 L75.7814753,37.4303636 L75.7814753,36.8990909 L75.9056124,36.8990909 C75.9949169,36.8990909 76.0771809,36.8896364 76.1512925,36.87 C76.2257748,36.8503636 76.2954397,36.814 76.3599169,36.7601818 C76.424394,36.7063636 76.4859067,36.6325455 76.5437138,36.5383636 C76.6015209,36.4441818 76.6604397,36.3223636 76.7200996,36.1729091 L78.9252922,30.3045455 L80.3208148,30.3045455 L82.446708,36.1827273 C82.4963628,36.3223636 82.5486115,36.4383636 82.6030836,36.5310909 C82.6579262,36.6238182 82.7172155,36.6969091 82.7820633,36.7503636 C82.8465404,36.8041818 82.9150937,36.8423636 82.9880937,36.8649091 C83.0607231,36.8878182 83.1370581,36.8990909 83.2167282,36.8990909 L83.4001545,36.8990909 L83.4001545,37.4303636 L80.0428961,37.4303636 L80.0428961,36.8990909 L80.4401346,36.8990909 C80.4897894,36.8990909 80.5409265,36.8918182 80.5939163,36.8769091 C80.6472767,36.8623636 80.6943376,36.8398182 80.7354696,36.8089091 C80.7773427,36.778 80.810693,36.7383636 80.8373732,36.6896364 C80.8640534,36.6409091 80.8770229,36.5823636 80.8770229,36.5136364 C80.8770229,36.4329091 80.8673884,36.3547273 80.8477488,36.2801818 C80.8273681,36.2056364 80.8077285,36.1401818 80.7877183,36.0852727 L80.4305001,35.0863636 L77.9566527,35.0863636 Z" id="Fill-23" fill="#496395"></path>
                <path d="M93.5285141,36.2510182 C93.5285141,36.3939273 93.5414837,36.5073818 93.5681639,36.5917455 C93.5944735,36.6764727 93.6318999,36.7419273 93.6800725,36.7873818 C93.7278745,36.8328364 93.7830877,36.8626545 93.8464532,36.8772 C93.9090775,36.8917455 93.9768897,36.8990182 94.0498897,36.8990182 L94.4771434,36.8990182 L94.4771434,37.4302909 L90.9657327,37.4302909 L90.9657327,36.8990182 L91.3926159,36.8990182 C91.4689509,36.8990182 91.5382454,36.8917455 91.6012403,36.8772 C91.6642352,36.8626545 91.7190778,36.8328364 91.7653976,36.7873818 C91.8117174,36.7419273 91.8480321,36.6764727 91.8743418,36.5917455 C91.901022,36.5073818 91.9143621,36.3939273 91.9143621,36.2510182 L91.9143621,30.9139273 L91.0995043,30.9139273 C90.9472048,30.9139273 90.8197328,30.9299273 90.7174587,30.9626545 C90.6144434,30.9953818 90.5310678,31.0415636 90.4665907,31.1015636 C90.401743,31.1619273 90.3539409,31.2353818 90.3224435,31.3233818 C90.290946,31.4106545 90.2687125,31.5102909 90.2553724,31.6204727 L90.1857075,32.2397455 L89.5005451,32.2397455 L89.5550172,30.3044727 L95.8926763,30.3044727 L95.9423311,32.2397455 L95.261986,32.2397455 L95.1875038,31.6204727 C95.1737931,31.5102909 95.1515596,31.4106545 95.1204327,31.3233818 C95.0885647,31.2353818 95.0407627,31.1619273 94.9762855,31.1015636 C94.9114378,31.0415636 94.8280622,30.9953818 94.7254175,30.9626545 C94.6227729,30.9299273 94.4953008,30.9139273 94.3430013,30.9139273 L93.5285141,30.9139273 L93.5285141,36.2510182 Z" id="Fill-25" fill="#496395"></path>
                <path d="M105.499104,36.8213091 L107.535693,36.8213091 C107.637967,36.8213091 107.725789,36.8020364 107.798789,36.7653091 C107.871419,36.7278545 107.934414,36.6751273 107.987404,36.6067636 C108.040393,36.5384 108.082637,36.4580364 108.114135,36.3653091 C108.145632,36.2729455 108.169718,36.1714909 108.186023,36.0605818 L108.265693,35.5929455 L108.970865,35.5929455 L108.896013,37.4304 L102.936323,37.4304 L102.936323,36.8991273 L103.363206,36.8991273 C103.436206,36.8991273 103.504389,36.8925818 103.567013,36.8794909 C103.630008,36.8667636 103.685221,36.8398545 103.733394,36.7991273 C103.781567,36.7587636 103.818622,36.6984 103.845303,36.6187636 C103.871612,36.5394909 103.884952,36.4347636 103.884952,36.3042182 L103.884952,31.4791273 C103.884952,31.3362182 103.871612,31.2227636 103.845303,31.1380364 C103.818622,31.0536727 103.782308,30.9889455 103.735988,30.9434909 C103.689668,30.8980364 103.634825,30.8674909 103.572201,30.8529455 C103.508836,30.8384 103.439541,30.8307636 103.363206,30.8307636 L102.936323,30.8307636 L102.936323,30.3045818 L108.583632,30.3045818 L108.623282,32.1424 L107.912921,32.1424 L107.863267,31.6693091 C107.836957,31.4256727 107.773962,31.2387636 107.674652,31.1089455 C107.575343,30.9791273 107.42119,30.9140364 107.212937,30.9140364 L105.499104,30.9140364 L105.499104,33.4093091 L107.912921,33.4093091 L107.912921,34.0089455 L105.499104,34.0089455 L105.499104,36.8213091 Z" id="Fill-27" fill="#496395"></path>
                <path d="M127.995515,33.7552727 L128.566546,33.7552727 C128.80148,33.7552727 128.997875,33.7247273 129.155363,33.6629091 C129.312479,33.6010909 129.438469,33.5094545 129.532221,33.3872727 C129.626713,33.2654545 129.694896,33.1127273 129.736028,32.9294545 C129.77753,32.7461818 129.798281,32.532 129.798281,32.2887273 C129.798281,32.0352727 129.774936,31.8207273 129.728987,31.6450909 C129.682297,31.4698182 129.609667,31.3254545 129.510358,31.2134545 C129.411048,31.1014545 129.282094,31.0203636 129.123124,30.9701818 C128.963784,30.9196364 128.771835,30.8945455 128.546906,30.8945455 L127.995515,30.8945455 L127.995515,33.7552727 Z M125.442368,36.8992727 L125.869622,36.8992727 C125.939287,36.8992727 126.005617,36.8927273 126.068612,36.8796364 C126.131236,36.8669091 126.18682,36.8396364 126.234622,36.7992727 C126.282795,36.7589091 126.320592,36.6985455 126.348754,36.6189091 C126.377287,36.5392727 126.391368,36.4345455 126.391368,36.3043636 L126.391368,31.4403636 C126.391368,31.3072727 126.377287,31.2007273 126.348754,31.1210909 C126.320592,31.0414545 126.282795,30.9803636 126.234622,30.9385455 C126.18682,30.896 126.131236,30.8676364 126.068612,30.8530909 C126.005617,30.8385455 125.939287,30.8309091 125.869622,30.8309091 L125.442368,30.8309091 L125.442368,30.3047273 L128.720698,30.3047273 C129.680814,30.3047273 130.385246,30.4621818 130.833992,30.7774545 C131.282738,31.0927273 131.506926,31.5509091 131.506926,32.152 C131.506926,32.4149091 131.467276,32.6490909 131.387606,32.8538182 C131.307936,33.0585455 131.203068,33.2370909 131.072632,33.3898182 C130.941454,33.5425455 130.793601,33.672 130.627962,33.7774545 C130.461951,33.8832727 130.293347,33.9698182 130.121038,34.0378182 L131.333505,36.0850909 C131.419104,36.2283636 131.50285,36.3509091 131.584002,36.4534545 C131.665154,36.5556364 131.745936,36.6403636 131.827088,36.7061818 C131.908611,36.7734545 131.991987,36.8221818 132.077956,36.8527273 C132.164296,36.884 132.255454,36.8992727 132.351428,36.8992727 L132.391078,36.8992727 L132.391078,37.4301818 L132.058317,37.4301818 C131.753718,37.4301818 131.487657,37.4192727 131.261246,37.3963636 C131.034464,37.3738182 130.835474,37.3287273 130.665017,37.2625455 C130.494561,37.1956364 130.347449,37.104 130.222941,36.9869091 C130.099175,36.8698182 129.983561,36.7189091 129.877581,36.5338182 L128.670672,34.3356364 L127.995515,34.3356364 L127.995515,36.3043636 C127.995515,36.4345455 128.009596,36.5392727 128.037759,36.6189091 C128.065551,36.6985455 128.104089,36.7589091 128.152261,36.7992727 C128.200063,36.8396364 128.255647,36.8669091 128.318271,36.8796364 C128.381266,36.8927273 128.447596,36.8992727 128.516891,36.8992727 L128.95415,36.8992727 L128.95415,37.4301818 L125.442368,37.4301818 L125.442368,36.8992727 Z" id="Fill-29" fill="#496395"></path>
                <g id="Group-33" transform="translate(138.959373, 29.891636)">
                    <mask id="mask-2" fill="white">
                        <use xlink:href="#path-1"></use>
                    </mask>
                    <g id="Clip-32"></g>
                    <path d="M2.06971648,3.96592727 C2.06971648,4.44374545 2.10121394,4.86956364 2.16383829,5.24301818 C2.22683321,5.61683636 2.32799563,5.93247273 2.46695501,6.19101818 C2.60591438,6.44956364 2.78600573,6.64665455 3.00574681,6.78338182 C3.22622902,6.91974545 3.49340157,6.98810909 3.80800559,6.98810909 C4.12594464,6.98810909 4.39496998,6.91974545 4.61508163,6.78338182 C4.83556383,6.64665455 5.01306127,6.44956364 5.14905618,6.19101818 C5.28468053,5.93247273 5.38287848,5.61683636 5.44439116,5.24301818 C5.50553329,4.86956364 5.53628963,4.44374545 5.53628963,3.96592727 C5.53628963,3.48883636 5.50553329,3.06301818 5.44439116,2.68883636 C5.38287848,2.31538182 5.28468053,1.99938182 5.14905618,1.7412 C5.01306127,1.48301818 4.83630495,1.28629091 4.61767554,1.15138182 C4.39904612,1.01683636 4.13224413,0.9492 3.81801067,0.9492 C3.50007162,0.9492 3.23030516,1.01683636 3.00834072,1.15138182 C2.78674684,1.28629091 2.60591438,1.48301818 2.46695501,1.7412 C2.32799563,1.99938182 2.22683321,2.31538182 2.16383829,2.68883636 C2.10121394,3.06301818 2.06971648,3.48883636 2.06971648,3.96592727 M7.24493408,3.96592727 C7.24493408,4.51538182 7.16971073,5.01574545 7.0188935,5.46738182 C6.86807626,5.91901818 6.64685294,6.30592727 6.3537413,6.62701818 C6.06062966,6.94883636 5.70118808,7.19756364 5.27578713,7.37283636 C4.85001561,7.54847273 4.36087862,7.63647273 3.80800559,7.63647273 C3.22882293,7.63647273 2.72301081,7.54847273 2.2909398,7.37283636 C1.85886879,7.19756364 1.50016833,6.94883636 1.21557954,6.62701818 C0.930990741,6.30592727 0.717178586,5.91829091 0.574884189,5.4652 C0.432589791,5.01174545 0.361072034,4.50883636 0.361072034,3.95683636 C0.361072034,3.40410909 0.432589791,2.90265455 0.574884189,2.45283636 C0.717178586,2.00301818 0.931731857,1.61865455 1.21817344,1.30010909 C1.50461503,0.981563636 1.86331549,0.735745455 2.29575706,0.561927273 C2.72782807,0.387745455 3.23512242,0.3012 3.81801067,0.3012 C4.36754867,0.3012 4.85520342,0.387745455 5.28097494,0.561927273 C5.70600534,0.735745455 6.06433525,0.982654545 6.35596465,1.30265455 C6.64759405,1.62301818 6.86807626,2.00774545 7.0188935,2.45756364 C7.16971073,2.90774545 7.24493408,3.41065455 7.24493408,3.96592727" id="Fill-31" fill="#496395" mask="url(#mask-2)"></path>
                </g>
                <g id="Group-36" transform="translate(153.781706, 29.891636)">
                    <mask id="mask-4" fill="white">
                        <use xlink:href="#path-3"></use>
                    </mask>
                    <g id="Clip-35"></g>
                    <path d="M1.86565001,3.96592727 C1.86565001,4.44374545 1.89714747,4.86956364 1.95977182,5.24301818 C2.02276674,5.61683636 2.12392916,5.93247273 2.26288854,6.19101818 C2.40184791,6.44956364 2.58193926,6.64665455 2.80168034,6.78338182 C3.02216255,6.91974545 3.2893351,6.98810909 3.60393912,6.98810909 C3.92187817,6.98810909 4.19090351,6.91974545 4.41101516,6.78338182 C4.63149736,6.64665455 4.8089948,6.44956364 4.94498971,6.19101818 C5.08061405,5.93247273 5.17881201,5.61683636 5.24032469,5.24301818 C5.30146682,4.86956364 5.33222316,4.44374545 5.33222316,3.96592727 C5.33222316,3.48883636 5.30146682,3.06301818 5.24032469,2.68883636 C5.17881201,2.31538182 5.08061405,1.99938182 4.94498971,1.7412 C4.8089948,1.48301818 4.63223848,1.28629091 4.41360907,1.15138182 C4.19497965,1.01683636 3.92817766,0.9492 3.6139442,0.9492 C3.29600515,0.9492 3.02586813,1.01683636 2.80427425,1.15138182 C2.58268037,1.28629091 2.40184791,1.48301818 2.26288854,1.7412 C2.12392916,1.99938182 2.02276674,2.31538182 1.95977182,2.68883636 C1.89714747,3.06301818 1.86565001,3.48883636 1.86565001,3.96592727 M7.0408676,3.96592727 C7.0408676,4.51538182 6.96564426,5.01574545 6.81482702,5.46738182 C6.66400979,5.91901818 6.44278646,6.30592727 6.14967483,6.62701818 C5.85656319,6.94883636 5.49712161,7.19756364 5.07172065,7.37283636 C4.64594914,7.54847273 4.15681215,7.63647273 3.60393912,7.63647273 C3.02475646,7.63647273 2.51894434,7.54847273 2.08687333,7.37283636 C1.65480232,7.19756364 1.29610186,6.94883636 1.01151307,6.62701818 C0.72692427,6.30592727 0.513112115,5.91829091 0.370817718,5.4652 C0.22852332,5.01174545 0.157005563,4.50883636 0.157005563,3.95683636 C0.157005563,3.40410909 0.22852332,2.90265455 0.370817718,2.45283636 C0.513112115,2.00301818 0.727665387,1.61865455 1.01410697,1.30010909 C1.30054856,0.981563636 1.65924902,0.735745455 2.09169059,0.561927273 C2.5237616,0.387745455 3.03105595,0.3012 3.6139442,0.3012 C4.1634822,0.3012 4.65113695,0.387745455 5.07653791,0.561927273 C5.50193887,0.735745455 5.86026877,0.982654545 6.15189818,1.30265455 C6.44352758,1.62301818 6.66400979,2.00774545 6.81482702,2.45756364 C6.96564426,2.90774545 7.0408676,3.41065455 7.0408676,3.96592727" id="Fill-34" fill="#496395" mask="url(#mask-4)"></path>
                </g>
                <path d="M173.255028,32.1423636 L173.205373,31.6598182 C173.172393,31.3965455 173.0905,31.2063636 172.959693,31.0892727 C172.828885,30.9721818 172.65917,30.914 172.450175,30.914 L170.831576,30.914 L170.831576,33.6383636 L173.245393,33.6383636 L173.245393,34.2281818 L170.831576,34.2281818 L170.831576,36.2510909 C170.831576,36.3936364 170.845287,36.5074545 170.87382,36.5918182 C170.901612,36.6765455 170.938667,36.7416364 170.985358,36.7870909 C171.031678,36.8325455 171.087632,36.8623636 171.154332,36.8772727 C171.220662,36.8918182 171.289957,36.8990909 171.362957,36.8990909 L171.993647,36.8990909 L171.993647,37.4303636 L168.278429,37.4303636 L168.278429,36.8990909 L168.705683,36.8990909 C168.778683,36.8990909 168.846495,36.8925455 168.909119,36.8794545 C168.972114,36.8667273 169.027698,36.8398182 169.0755,36.7994545 C169.124043,36.7587273 169.161099,36.6983636 169.187038,36.6190909 C169.214089,36.5394545 169.227059,36.4347273 169.227059,36.3041818 L169.227059,31.4401818 C169.227059,31.3070909 169.214089,31.2005455 169.187038,31.1209091 C169.161099,31.0416364 169.124043,30.9805455 169.0755,30.9383636 C169.027698,30.8958182 168.972114,30.8674545 168.909119,30.8529091 C168.846495,30.8383636 168.778683,30.8310909 168.705683,30.8310909 L168.278429,30.8310909 L168.278429,30.3045455 L173.915733,30.3045455 L173.965758,32.1423636 L173.255028,32.1423636 Z" id="Fill-37" fill="#496395"></path>
                <path d="M181.207913,37.4303273 L181.207913,36.8990545 L181.635167,36.8990545 C181.711131,36.8990545 181.781167,36.8917818 181.843791,36.8772364 C181.906786,36.8623273 181.961258,36.8325091 182.007578,36.7870545 C182.053898,36.7416 182.090583,36.6765091 182.116893,36.5917818 C182.143203,36.5074182 182.156913,36.3936 182.156913,36.2510545 L182.156913,31.4837818 C182.156913,31.3412364 182.143203,31.2274182 182.116893,31.1430545 C182.090583,31.0586909 182.053898,30.9939636 182.007578,30.9477818 C181.961258,30.9023273 181.906786,30.8725091 181.843791,30.8579636 C181.781167,30.8434182 181.711131,30.8357818 181.635167,30.8357818 L181.207913,30.8357818 L181.207913,30.3045091 L184.720065,30.3045091 L184.720065,30.8357818 L184.29207,30.8357818 C184.219811,30.8357818 184.150517,30.8434182 184.086781,30.8579636 C184.021933,30.8725091 183.965979,30.9023273 183.919659,30.9477818 C183.873339,30.9939636 183.837025,31.0586909 183.810344,31.1430545 C183.784035,31.2274182 183.771065,31.3412364 183.771065,31.4837818 L183.771065,36.2510545 C183.771065,36.3936 183.784035,36.5074182 183.810344,36.5917818 C183.837025,36.6765091 183.873339,36.7416 183.919659,36.7870545 C183.965979,36.8325091 184.021933,36.8623273 184.086781,36.8772364 C184.150517,36.8917818 184.219811,36.8990545 184.29207,36.8990545 L184.720065,36.8990545 L184.720065,37.4303273 L181.207913,37.4303273 Z" id="Fill-39" fill="#496395"></path>
                <path d="M197.574363,37.4303273 L193.605683,31.9325091 L193.605683,36.2510545 C193.605683,36.3936 193.619764,36.5074182 193.647927,36.5917818 C193.675719,36.6765091 193.713145,36.7416 193.759835,36.7870545 C193.806155,36.8325091 193.861368,36.8623273 193.925846,36.8772364 C193.990693,36.8917818 194.057764,36.8990545 194.127059,36.8990545 L194.554313,36.8990545 L194.554313,37.4303273 L191.897409,37.4303273 L191.897409,36.8990545 L192.324293,36.8990545 C192.397293,36.8990545 192.465105,36.8917818 192.5281,36.8772364 C192.590724,36.8623273 192.646308,36.8325091 192.69411,36.7870545 C192.742282,36.7416 192.780079,36.6765091 192.806018,36.5917818 C192.832328,36.5074182 192.845668,36.3936 192.845668,36.2510545 L192.845668,31.4401455 C192.845668,31.3070545 192.831587,31.2005091 192.803424,31.1208727 C192.775633,31.0416 192.737465,30.9805091 192.688922,30.9383273 C192.64112,30.8957818 192.585907,30.8674182 192.522912,30.8528727 C192.459917,30.8383273 192.393958,30.8310545 192.324293,30.8310545 L191.897409,30.8310545 L191.897409,30.3045091 L194.156703,30.3045091 L197.748155,35.2859636 L197.748155,31.4401455 C197.748155,31.3070545 197.734074,31.2005091 197.705541,31.1208727 C197.677378,31.0416 197.639581,30.9805091 197.591409,30.9383273 C197.543607,30.8957818 197.488023,30.8674182 197.425398,30.8528727 C197.362404,30.8383273 197.296074,30.8310545 197.226779,30.8310545 L196.799155,30.8310545 L196.799155,30.3045091 L199.456429,30.3045091 L199.456429,30.8310545 L199.029545,30.8310545 C198.959881,30.8310545 198.893921,30.8383273 198.830926,30.8528727 C198.767931,30.8674182 198.711977,30.8979636 198.664175,30.9434182 C198.616373,30.9888727 198.578947,31.0536 198.553007,31.1379636 C198.525957,31.2226909 198.512617,31.3361455 198.512617,31.4790545 L198.512617,37.4303273 L197.574363,37.4303273 Z" id="Fill-41" fill="#496395"></path>
                <g id="Group-45" transform="translate(206.771546, 29.891636)">
                    <mask id="mask-6" fill="white">
                        <use xlink:href="#path-5"></use>
                    </mask>
                    <g id="Clip-44"></g>
                    <path d="M3.77198732,7.63636364 C3.14277928,7.63636364 2.5939824,7.54836364 2.12559668,7.37272727 C1.65684039,7.19745455 1.26664247,6.94872727 0.955744037,6.62727273 C0.644845601,6.30581818 0.412876088,5.91890909 0.260206057,5.46727273 C0.107906585,5.01563636 0.0319421278,4.51527273 0.0319421278,3.96581818 C0.0319421278,3.42690909 0.113094401,2.93272727 0.275398949,2.48436364 C0.437332938,2.03636364 0.677454733,1.65127273 0.995764336,1.32945455 C1.31370338,1.00763636 1.70908912,0.757454545 2.18266266,0.578909091 C2.65586564,0.4 3.20429197,0.310545455 3.8264594,0.310545455 C4.25074868,0.310545455 4.62056589,0.341090909 4.93665214,0.401090909 C5.2527384,0.461090909 5.51805816,0.542909091 5.7311292,0.646909091 C5.94494135,0.750909091 6.10502255,0.873454545 6.21063167,1.01490909 C6.31661135,1.15636364 6.36960119,1.30836364 6.36960119,1.47090909 C6.36960119,1.58727273 6.34180932,1.69745455 6.2851139,1.79963636 C6.22878903,1.90181818 6.14430173,1.99236364 6.03202256,2.07018182 C5.91937283,2.148 5.78189569,2.20872727 5.61922058,2.25272727 C5.45765715,2.29672727 5.26867241,2.31890909 5.05337802,2.31890909 C5.05337802,2.11709091 5.02892117,1.932 4.97889579,1.76327273 C4.92924098,1.59454545 4.85216485,1.44945455 4.74803796,1.32945455 C4.64354051,1.20909091 4.5119923,1.11563636 4.35302278,1.04909091 C4.19442382,0.982545455 4.0069213,0.949090909 3.79199747,0.949090909 C3.42106859,0.949090909 3.10572345,1.01563636 2.8455915,1.14909091 C2.58545956,1.28218182 2.37424131,1.47745455 2.20971342,1.73381818 C2.04629719,1.99090909 1.92697741,2.30654545 1.85212463,2.68181818 C1.77764241,3.05709091 1.74095713,3.48509091 1.74095713,3.96581818 C1.74095713,4.44690909 1.7794952,4.87345455 1.85731245,5.24581818 C1.9351297,5.61745455 2.06111953,5.93054545 2.23528194,6.184 C2.40833268,6.43709091 2.6340027,6.62981818 2.91043921,6.76145455 C3.18650517,6.89272727 3.52519548,6.95890909 3.92576903,6.95890909 C4.05175886,6.95890909 4.17774869,6.95381818 4.30336796,6.944 C4.42935779,6.93418182 4.55164204,6.91672727 4.67096182,6.89054545 L4.67096182,5.42327273 C4.67096182,5.15709091 4.6098197,4.97163636 4.48753545,4.868 C4.36488065,4.764 4.18404818,4.71163636 3.94614974,4.71163636 L3.81126651,4.71163636 L3.81126651,4.18545455 L7.01029654,4.18545455 L7.01029654,4.71163636 L6.87652499,4.71163636 C6.77388033,4.71163636 6.68420521,4.724 6.6078702,4.74872727 C6.53190574,4.77272727 6.46891083,4.81418182 6.41925601,4.87272727 C6.36960119,4.93127273 6.33328648,5.00836364 6.3099413,5.10436364 C6.28696669,5.20036364 6.27510882,5.31963636 6.27510882,5.46218182 L6.27510882,7.1 C5.8778703,7.27890909 5.47729674,7.41272727 5.07338817,7.50218182 C4.66947959,7.59163636 4.23555579,7.63636364 3.77198732,7.63636364" id="Fill-43" fill="#496395" mask="url(#mask-6)"></path>
                </g>
                <polygon id="Fill-46" fill="#84A3CE" points="17.6760769 18.9992364 7.41116655e-05 1.65269091 7.41116655e-05 36.3450545"></polygon>
                <polygon id="Fill-48" fill="#2E385E" points="1.20505568 0.470654545 18.8803173 17.8172 36.5574318 0.470654545"></polygon>
                <polygon id="Fill-50" fill="#84A3CE" points="20.0852248 18.9992364 37.7619687 36.3457818 37.7619687 1.65269091"></polygon>
                <polygon id="Fill-52" fill="#2E385E" points="18.8802062 20.1810545 1.20494451 37.5279636 36.5576911 37.5279636"></polygon>
            </g>
        </g>
    </g>
</svg>