<?xml version="1.0" encoding="UTF-8" standalone="no"?>
<svg width="55px" height="52px" viewBox="0 0 55 52" version="1.1" xmlns="http://www.w3.org/2000/svg" xmlns:xlink="http://www.w3.org/1999/xlink">
    <!-- Generator: Sketch 41.2 (35397) - http://www.bohemiancoding.com/sketch -->
    <title>roof-repair</title>
    <desc>Created with Sketch.</desc>
    <defs>
        <polygon id="path-1" points="54.7066788 1.02633951e-14 0 1.02633951e-14 0 51.6467611 54.7066788 51.6467611 54.7066788 0"></polygon>
    </defs>
    <g id="Welcome" stroke="none" stroke-width="1" fill="none" fill-rule="evenodd">
        <g id="Desktop" transform="translate(-728.000000, -555.000000)">
            <g id="roof-repair" transform="translate(728.000000, 555.000000)">
                <mask id="mask-2" fill="white">
                    <use xlink:href="#path-1"></use>
                </mask>
                <g id="Clip-2"></g>
                <path d="M37.195553,26.8842889 C36.4084338,26.1035667 36.1436325,25.0249278 36.4346589,24.1456222 L35.1179371,22.8398444 L33.282904,24.6591222 L27.2212483,18.6495111 L29.0562815,16.8305944 L26.9513477,14.7433722 L26.1383675,13.9377333 C23.4994603,11.3218444 15.2516457,3.14412222 13.7906854,1.69570556 C26.6100563,0.771261111 33.2628709,8.48676111 33.2628709,8.48676111 L42.7676722,17.9095944 C43.6433013,17.6517611 44.7003212,17.9179 45.469957,18.6809278 L52.3977715,25.5489 L44.1233675,33.7522611 L37.195553,26.8842889 Z M2.30916225,43.3480667 L25.9373079,19.92315 L31.9985993,25.9324 L8.37045364,49.3576778 L2.30916225,43.3480667 Z M46.624957,17.5362056 C45.7187318,16.6381222 44.5273079,16.1639833 43.346447,16.1943167 L34.4553874,7.37851111 C34.382904,7.29870556 34.239394,7.14234444 34.0215795,6.92676111 C32.1876391,5.10892778 25.3009834,-0.757683333 13.6719437,0.0811777778 L10.1118775,0.338288889 L26.7473742,16.8302333 L-0.000109271523,43.3480667 L8.37045364,51.6467611 L34.7384007,25.5055667 C34.8815464,26.4278444 35.3306523,27.3241222 36.0412815,28.0293722 L44.1233675,36.0413444 L54.7066788,25.5489 L46.624957,17.5362056 Z" id="Fill-1" fill="#2E395F" mask="url(#mask-2)"></path>
            </g>
        </g>
    </g>
</svg>