<?xml version="1.0" encoding="UTF-8" standalone="no"?>
<svg width="69px" height="55px" viewBox="0 0 69 55" version="1.1" xmlns="http://www.w3.org/2000/svg" xmlns:xlink="http://www.w3.org/1999/xlink">
    <!-- Generator: Sketch 41.2 (35397) - http://www.bohemiancoding.com/sketch -->
    <title>roof-replace</title>
    <desc>Created with Sketch.</desc>
    <defs></defs>
    <g id="Welcome" stroke="none" stroke-width="1" fill="none" fill-rule="evenodd">
        <g id="Desktop" transform="translate(-343.000000, -555.000000)" fill="#2E395F">
            <g id="roof-replace" transform="translate(343.000000, 555.000000)">
                <path d="M47.531067,0.000229166667 L47.531067,9.44227778 L36.1013308,1.72585417 L35.101589,0.216027778 L34.4730066,0.64075 L33.891056,0.253840278 L32.8848692,1.71286806 L-7.58241758e-05,23.9130069 L-7.58241758e-05,38.2897778 L5.66095714,34.4076944 L5.66095714,54.8715139 L17.0645341,54.8715139 L17.0645341,26.5858542 L34.4828637,14.6393958 L52.8956275,27.2680069 L52.8956275,54.8715139 L64.2992044,54.8715139 L64.2992044,35.0887014 L68.9661824,38.2897778 L68.9661824,23.9130069 L58.9350231,17.1411319 L58.9350231,0.000229166667 L47.531067,0.000229166667 Z M49.8057923,10.9780764 L49.8057923,2.29151389 L56.6599187,2.29151389 L56.6599187,15.6049514 L49.8057923,10.9780764 Z M34.4919626,3.39838889 L47.531067,12.2014444 L47.531067,12.3053333 L58.9350231,20.0041875 L58.9350231,19.8995347 L66.6918363,25.1359931 L66.6918363,33.9577639 L64.2992044,32.3169306 L64.2992044,32.1798125 L52.8956275,24.3575903 L52.8956275,24.4947083 L34.4828637,11.8668611 L2.27502857,33.9577639 L2.27502857,25.1359931 L34.474144,3.39838889 L34.4828637,3.41175694 L34.4919626,3.39838889 Z M7.93568242,33.3917222 L14.7898088,28.69075 L14.7898088,52.5798472 L7.93568242,52.5798472 L7.93568242,33.3917222 Z M55.1703527,28.8278681 L62.0241,33.5288403 L62.0241,52.5798472 L55.1703527,52.5798472 L55.1703527,28.8278681 Z" id="Fill-1"></path>
                <g id="Group-6" transform="translate(20.472527, 19.732778)">
                    <path d="M16.443989,27.3843854 L16.1641978,27.2209132 L13.0929396,25.434941 L13.0929396,27.5925451 C7.51038462,27.0799757 3.13532967,22.3564688 3.13532967,16.5990382 C3.13532967,11.1918507 6.9944011,6.70094792 12.0867527,5.74761458 L9.14932418,4.03841319 L11.2432088,2.82115625 C4.90468681,4.15261458 0.128521978,9.82372569 0.128521978,16.5990382 C0.128521978,24.018309 5.85817582,30.1110868 13.0929396,30.632441 L13.0929396,32.5803576 L16.1641978,30.7936215 L16.8432033,30.3990729 L19.2346978,29.0076493 L16.443989,27.3843854 Z" id="Fill-2"></path>
                    <path d="M13.9138121,5.54694097 L14.1936033,5.70964931 L17.2648615,7.49562153 L17.2648615,5.33878125 C22.8474165,5.85135069 27.2217132,10.5752396 27.2217132,16.3326701 C27.2217132,21.7387118 23.3634,26.2303785 18.2710484,27.1829479 L21.2084769,28.8921493 L19.1145923,30.1101701 C25.4531143,28.7787118 30.2289,23.1068368 30.2289,16.3326701 C30.2289,8.91301736 24.4996253,2.81947569 17.2648615,2.29812153 L17.2648615,0.35096875 L14.1936033,2.13694097 L13.5142187,2.53225347 L11.1231033,3.92291319 L13.9138121,5.54694097 Z" id="Fill-4"></path>
                </g>
            </g>
        </g>
    </g>
</svg>